<?xml version="1.0" encoding="UTF-8"?>
<svg width="147px" height="152px" viewBox="0 0 147 152" version="1.1" xmlns="http://www.w3.org/2000/svg" xmlns:xlink="http://www.w3.org/1999/xlink">
    <!-- Generator: Sketch 42 (36781) - http://www.bohemiancoding.com/sketch -->
    <title>Azerbaijan</title>
    <desc>Created with Sketch.</desc>
    <defs>
        <path d="M13.1241611,59.3422819 C13.4442953,30.6409396 28.3808725,21.6580537 36.5151007,21.6580537 C47.8748322,21.6580537 52.5661074,30.3298658 53.3332215,34.1694631 C54.0993289,38.007047 58.3989933,41.0755034 59.7802013,34.7825503 C61.1624161,28.4895973 74.5275168,9.30067114 90.9510067,9.30067114 C105.993289,9.30067114 111.20302,24.8120805 110.752013,38.007047 C109.521812,73.9244966 63.2493289,102.591611 57.1587248,120.693289 C51.7355705,109.729195 12.7416107,93.8815436 13.1241611,59.3422819 Z M96.3238255,0.399328859 C82.8157718,0.399328859 66.8402685,10.3758389 57.1708054,26.9553691 C54.5614094,20.9674497 45.2654362,14.442953 34.2147651,14.442953 C25.3104027,14.442953 0.315771812,25.5721477 0.315771812,61.4916107 C0.315771812,107.848658 47.216443,117.370134 56.697651,131.777181 C57.3489933,132.768792 59.4479866,133.516779 60.2483221,131.148993 C67.8137584,108.821141 126.476846,83.5959732 126.476846,38.1600671 C126.476846,12.6791946 109.831879,0.399328859 96.3238255,0.399328859 L96.3238255,0.399328859 Z" id="path-1"></path>
        <filter x="-50%" y="-50%" width="200%" height="200%" filterUnits="objectBoundingBox" id="filter-2">
            <feOffset dx="0" dy="0" in="SourceAlpha" result="shadowOffsetOuter1"></feOffset>
            <feGaussianBlur stdDeviation="5" in="shadowOffsetOuter1" result="shadowBlurOuter1"></feGaussianBlur>
            <feColorMatrix values="0 0 0 0 0   0 0 0 0 0   0 0 0 0 0  0 0 0 0.266191123 0" type="matrix" in="shadowBlurOuter1"></feColorMatrix>
        </filter>
    </defs>
    <g id="Page-1" stroke="none" stroke-width="1" fill="none" fill-rule="evenodd">
        <g id="Azerbaijan" transform="translate(9.885041, 9.429688)">
            <path d="M57.1587248,120.693289 C60.6197987,110.406711 77.0533557,96.7073826 90.8271812,80.2063758 L22.2348993,86.8889262 C34.0114094,103.395973 53.4469799,113.188255 57.1587248,120.693289" id="Fill-25" fill="#039E60"></path>
            <path d="M90.9510067,9.30067114 C74.5275168,9.30067114 61.1624161,28.4895973 59.7802013,34.7825503 C58.3989933,41.0755034 54.0993289,38.007047 53.3332215,34.1694631 C52.5661074,30.3298658 47.8748322,21.6580537 36.5151007,21.6580537 C29.3714765,21.6580537 16.9848993,28.5912752 13.8560403,49.7191275 L110.615101,40.183557 C110.677517,39.4607383 110.727852,38.735906 110.752013,38.007047 C111.20302,24.8120805 105.993289,9.30067114 90.9510067,9.30067114" id="Fill-26" fill="#1A8FC3"></path>
            <path d="M13.8620805,49.7191275 C13.4261745,52.6486577 13.1634228,55.8439597 13.1241611,59.3422819 C13.0033557,70.2419463 16.8057047,79.2781879 22.2348993,86.8889262 L90.8271812,80.2063758 C100.799664,68.2587248 109.359732,54.8402685 110.605034,40.183557 L13.8620805,49.7191275" id="Fill-27" fill="#DE4A37"></path>
            <path d="M45.7275168,65.5677852 C45.7275168,57.7486577 52.0436242,50.742953 59.8375839,49.9224832 C62.2637584,49.6657718 64.55,50.0412752 66.5473154,50.9171141 C63.5231544,48.4224832 59.4842282,47.1268456 55.0375839,47.5969799 C45.6892617,48.5825503 38.1097315,56.9885906 38.1097315,66.3731544 C38.1097315,75.7557047 45.6892617,82.5620805 55.0375839,81.5765101 C59.4842282,81.1073826 63.5231544,78.9600671 66.5473154,75.8271812 C64.55,77.1248322 62.2637584,77.9815436 59.8375839,78.2392617 C52.0436242,79.0597315 45.7275168,73.3879195 45.7275168,65.5677852" id="Fill-28" fill="#FFFFFF"></path>
            <polyline id="Fill-29" fill="#FFFFFF" points="83.157047 61.6194631 78.0973154 60.3469799 80.4057047 55.235906 75.5513423 58.0627517 73.7533557 53.1731544 71.9513423 58.4412752 67.1020134 56.6392617 69.409396 61.2630872 64.3506711 63.6026846 69.409396 64.8751678 67.1020134 69.988255 71.9513423 67.1614094 73.7533557 72.0510067 75.5513423 66.7828859 80.4057047 68.5848993 78.0973154 63.9610738 83.157047 61.6194631"></polyline>
            <g id="Fill-24">
                <use fill="black" fill-opacity="1" filter="url(#filter-2)" xlink:href="#path-1"></use>
                <use fill="#FFFFFF" fill-rule="evenodd" xlink:href="#path-1"></use>
            </g>
        </g>
    </g>
</svg>