<?xml version="1.0" encoding="UTF-8"?>
<svg width="142" height="148" 
viewBox="0 0 142 148" 
preserveAspectRatio="xMinYMin"
xmlns="http://www.w3.org/2000/svg">
<!-- Generator: FilePond Image Transform Plugin - https://pqina.nl/filepond -->
<title>Bosnia Herzegovina.svg</title>
<desc>Cropped with FilePond.</desc>
<g transform="rotate(0 71 74) translate(71 74) scale(1) translate(-71 -74) translate(0 0)">
<g transform="scale(1 1) translate(0 0)">
<svg width="142" height="148" xmlns="http://www.w3.org/2000/svg" xmlns:xlink="http://www.w3.org/1999/xlink" style="overflow: visible;"><defs><filter x="-12.2%" y="-11.6%" width="124.3%" height="123.2%" filterUnits="objectBoundingBox" id="a"><feOffset in="SourceAlpha" result="shadowOffsetOuter1"></feOffset><feGaussianBlur stdDeviation="5" in="shadowOffsetOuter1" result="shadowBlurOuter1"></feGaussianBlur><feColorMatrix values="0 0 0 0 0 0 0 0 0 0 0 0 0 0 0 0 0 0 0.266191123 0" in="shadowBlurOuter1"></feColorMatrix></filter><path d="M12.934 58.283c.314-28.067 14.92-36.851 22.874-36.851 11.108 0 15.696 8.48 16.446 12.235.75 3.752 4.954 6.753 6.305.6 1.352-6.155 14.421-24.92 30.481-24.92 14.71 0 19.804 15.17 19.364 28.072-1.204 35.123-46.453 63.156-52.409 80.858-5.303-10.722-43.435-26.218-43.061-59.994zM94.294.643c-13.209 0-28.832 9.756-38.287 25.97-2.552-5.857-11.642-12.237-22.448-12.237-8.708 0-33.15 10.883-33.15 46.009 0 45.33 45.863 54.643 55.135 68.731.637.97 2.69 1.7 3.473-.615C66.415 106.668 123.78 82 123.78 37.57c0-24.918-16.276-36.926-29.485-36.926z" id="b"></path></defs><g fill="none" fill-rule="evenodd"><path fill="#FFF" d="M14.659 53.02l16.368-17.553 64.359 60.016-16.368 17.552z"></path><path d="M23.598 51.492l5.293 3.3-2.199 7.023 5.753-4.784L38.2 60.6l-2.183-6.561 5.74-4.8-7.112.75-2.199-6.558-2.192 7.021-6.558.691c.067-.235.132-.47.201-.7l.001-.002.003-.01-.302 1.06zm-7.565 8.693c.14-.19 10.629-19.934 10.77-20.116l1.71-.004c.14-.18.282-.358.425-.532l.016-.02c.142-.17.284-.34.427-.506l.016-.019c.44-.508 2.107-2.336 2.56-2.786l.011-.013c.215-.214.432-.418.65-.618l61.87 55.566a304.154 304.154 0 01-6.129 6.761l-.375.039-2.195-6.559-2.192 7.022-7.119.752 5.757 3.586-.773 2.466-.375.395-.37.394-.74.783-.366.388-.57.608-.155.164-.36.385-.165.178-.365.393-.665.715-.346.375-.718.783-.19.209c-.264.288-.523.575-.78.86l-.208.23-.75.84-.176.2c-.25.281-.494.561-.735.84l-.173.196c-.256.296-.507.588-.754.879l-.1.119c-.256.3-.505.598-.752.895l-.111.135c-.249.302-.494.601-.733.898l-.046.059c-.251.311-.497.623-.737.931l-.015.018-.023.032c-.237.304-.468.608-.694.908l-.023.03-.012.018c-.227.304-.448.606-.662.906l-.04.054c-.21.293-.413.584-.61.874l-.053.076c-.206.305-.405.61-.606.918-.437.683-1.06 4.761-2.128 6.618-.72 1.255-45.052-34.115-45.39-34.007l-3.733-34.316zm56.422 19.208l-2.198 7.022-7.114.75 5.755 3.587-2.198 7.024 5.755-4.783 5.752 3.57-2.183-6.564 5.741-4.8-7.115.751-2.195-6.557zM59.118 67.407l-2.196 7.021-7.116.75 5.757 3.586-2.203 7.025 5.758-4.784 5.754 3.569-2.188-6.561 5.746-4.8-7.116.75-2.196-6.556zM45.782 55.419l-2.193 7.02-7.118.753 5.755 3.586-2.201 7.025 5.757-4.786 5.755 3.57-2.19-6.56 5.747-4.802-7.114.752-2.198-6.558z" fill="#292D78"></path><path fill="#FFFFFE" d="M24.867 48.614l-.311-.193.127-.356.184.55"></path><path d="M94.488 91.137l-61.87-55.566c.08-.075.162-.151.244-.225l.049-.044c.138-.123.275-.244.414-.362l.04-.035c.149-.125.297-.248.446-.369l.02-.014c.144-.117.288-.23.432-.34l.046-.036c.146-.112.294-.22.44-.328l.003-.002.006-.004.015-.01c.145-.106.29-.208.436-.309l.04-.025c.15-.103.3-.204.45-.301l.004-.002c.154-.1.308-.197.462-.292l.02-.01c.144-.088.287-.174.43-.256l.055-.032c.143-.082.287-.162.43-.24l.014-.007.022-.011c.144-.078.287-.153.43-.226l.037-.018c.302-.153.604-.295.902-.427l.018-.007c.146-.065.29-.126.435-.185l.026-.012c.15-.06.297-.117.444-.173l.006-.003a13.8 13.8 0 01.44-.159l.02-.007c.142-.048.283-.096.422-.14l.016-.005.014-.004c.141-.044.28-.086.418-.125l.03-.008c.135-.04.27-.076.403-.11l.029-.007c.138-.035.276-.068.412-.098l.022-.005c.133-.03.264-.057.394-.083l.04-.007c.13-.025.261-.048.39-.069l.008-.001.007-.001c.13-.021.258-.04.386-.057l.045-.005c.12-.016.24-.03.358-.041l.031-.004a9.78 9.78 0 01.368-.03l.041-.004c.115-.007.23-.012.342-.017l.038-.001c.121-.004.241-.006.36-.006 11.108 0 15.696 8.48 16.447 12.235.01.056.023.111.036.167l.002.011.038.155.01.038c.028.107.058.212.092.318l.001.003.005.016.045.134.014.04.044.121.017.046.057.144.001.003.068.159.014.03.053.115.018.04.06.122.004.01.01.018.07.13.002.007.074.132.02.034.063.11.012.02.011.017.077.122.003.005.003.004.082.122.014.02.083.118.019.025.083.111.005.006c.066.085.135.169.204.249l.002.002a4.7 4.7 0 00.105.116l.003.003c.07.075.142.148.216.217l.001.002c.038.035.074.069.112.101l.001.002c.074.065.15.127.227.185l.004.003c.035.026.071.053.108.078l.015.011c.073.051.147.097.221.141l.01.006.007.005c.037.02.072.04.108.058l.01.006.115.056.004.003.115.05h.004v.002l.008.002c.038.015.074.028.112.041l.007.003c.036.013.074.024.11.035l.02.005.114.029.122.023h.003c.038.006.076.01.115.014l.014.002c.038.003.076.006.113.007h.011l.045.001.066-.001.012-.001c.038-.001.077-.005.115-.009h.004a2.038 2.038 0 00.239-.044h.006c.04-.01.078-.022.117-.035.039-.013.078-.027.115-.043l.011-.004c.077-.033.153-.07.228-.114l.005-.004c.038-.021.073-.043.11-.069l.007-.003c.074-.051.146-.108.218-.171l.01-.01c.073-.063.143-.132.212-.209l.007-.008a3.2 3.2 0 00.101-.118l.002-.003c.034-.042.067-.084.1-.129l.003-.006.002-.003c.034-.044.066-.092.098-.141l.005-.006c.065-.1.13-.208.191-.323l.004-.005.085-.165.01-.02c.03-.061.06-.123.087-.186l.001-.003c.027-.06.055-.123.08-.189l.015-.034.076-.197.001-.004a7.95 7.95 0 00.078-.223l.003-.009.074-.231.003-.011.067-.23.005-.021.005-.015.059-.233.01-.044c.022-.084.041-.17.062-.258 1.35-6.155 14.42-24.92 30.48-24.92.228 0 .455.006.678.012h.011c.215.008.428.018.64.031l.043.004c.212.013.423.032.632.052h.002c.215.022.426.047.636.075l.012.002c.206.028.411.059.613.094l.014.003c.202.034.402.071.6.112l.012.003c.196.041.393.085.585.132l.009.003.007.002c.193.047.383.098.571.152l.02.004c.184.054.366.108.547.167l.028.01c.18.058.359.12.536.184l.02.007c.176.064.351.132.525.203l.013.004.006.004c.176.072.35.147.522.223l.013.006c.17.078.338.158.506.24l.014.008c.164.081.328.166.49.253l.011.006.012.008c.163.088.324.18.482.272h.002c.16.095 10.552.42 10.707.52l.017.01c.154.099.306.2.455.303l.01.007c.389.268.761.553 1.123.853v50.341c-3.957 6.662-19.16 12.734-24.336 18.641" fill="#F6C524"></path><path fill="#292D78" d="M23.206 49.265h2.876v-2.492h-2.876z"></path><g transform="translate(8.66 8.84)"><use fill="#000" filter="url(#a)" xlink:href="#b"></use><use fill="#FFF" xlink:href="#b"></use></g></g></svg>
</g>
</g>
</svg>