<?xml version="1.0" encoding="UTF-8"?>
<svg width="144px" height="150px" viewBox="0 0 144 150" version="1.1" xmlns="http://www.w3.org/2000/svg" xmlns:xlink="http://www.w3.org/1999/xlink">
    <!-- Generator: Sketch 42 (36781) - http://www.bohemiancoding.com/sketch -->
    <title>Bulgaria</title>
    <desc>Created with Sketch.</desc>
    <defs>
        <path d="M13.3778788,58.2473636 C13.6934697,29.9533485 28.4180682,21.097947 36.4368561,21.097947 C47.6353712,21.097947 52.2600682,29.6466894 53.0162955,33.4317955 C53.7715303,37.2149167 58.0101742,40.2398258 59.3717803,34.0361818 C60.7343788,27.8325379 73.909803,8.91593939 90.1002121,8.91593939 C104.929015,8.91593939 110.064811,24.2072121 109.620205,37.2149167 C108.407462,72.6226288 62.7916742,100.882902 56.7875076,118.727682 C51.4413182,107.919189 13.0007576,92.296447 13.3778788,58.2473636 Z M95.3967803,0.140924242 C82.0804318,0.140924242 66.3316515,9.97584848 56.7994167,26.3200833 C54.227053,20.4171439 45.0630076,13.9852424 34.1691667,13.9852424 C25.3911742,13.9852424 0.751265152,24.9564924 0.751265152,60.3661894 C0.751265152,106.065341 46.9863258,115.451689 56.3329773,129.654273 C56.9750758,130.631811 59.0442803,131.369182 59.8332576,129.035 C67.2913258,107.025015 125.121871,82.1568485 125.121871,37.3657652 C125.121871,12.2465152 108.713129,0.140924242 95.3967803,0.140924242 L95.3967803,0.140924242 Z" id="path-1"></path>
        <filter x="-50%" y="-50%" width="200%" height="200%" filterUnits="objectBoundingBox" id="filter-2">
            <feOffset dx="0" dy="0" in="SourceAlpha" result="shadowOffsetOuter1"></feOffset>
            <feGaussianBlur stdDeviation="5" in="shadowOffsetOuter1" result="shadowBlurOuter1"></feGaussianBlur>
            <feColorMatrix values="0 0 0 0 0   0 0 0 0 0   0 0 0 0 0  0 0 0 0.266191123 0" type="matrix" in="shadowBlurOuter1"></feColorMatrix>
        </filter>
    </defs>
    <g id="Page-1" stroke="none" stroke-width="1" fill="none" fill-rule="evenodd">
        <g id="Bulgaria" transform="translate(8.968750, 9.839844)">
            <path d="M56.7875076,118.727682 C60.1994621,108.587091 76.3997955,95.0821818 89.9781439,78.8153561 L22.3593182,85.4030682 C33.968697,101.675848 53.1284394,111.330152 56.7875076,118.727682" id="Fill-40" fill="#D9222A"></path>
            <path d="M90.1002121,8.91593939 C73.909803,8.91593939 60.7343788,27.8325379 59.3717803,34.0361818 C58.0101742,40.2398258 53.7715303,37.2149167 53.0162955,33.4317955 C52.2600682,29.6466894 47.6353712,21.097947 36.4368561,21.097947 C29.3946136,21.097947 17.1838258,27.9327727 14.0993712,48.7607803 L109.485235,39.3605379 C109.546765,38.6479773 109.596386,37.9334318 109.620205,37.2149167 C110.064811,24.2072121 104.929015,8.91593939 90.1002121,8.91593939" id="Fill-41" fill="#FFFFFF"></path>
            <path d="M14.1053258,48.7607803 C13.6756061,51.6487348 13.4165833,54.7986894 13.3778788,58.2473636 C13.2587879,68.9923409 17.0071742,77.9003409 22.3593182,85.4030682 L89.9781439,78.8153561 C99.8090985,67.0372652 108.247682,53.8092424 109.475311,39.3605379 L14.1053258,48.7607803" id="Fill-42" fill="#009949"></path>
            <g id="Fill-39">
                <use fill="black" fill-opacity="1" filter="url(#filter-2)" xlink:href="#path-1"></use>
                <use fill="#FFFFFF" fill-rule="evenodd" xlink:href="#path-1"></use>
            </g>
        </g>
    </g>
</svg>