<?xml version="1.0" encoding="UTF-8"?>
<svg width="146px" height="151px" viewBox="0 0 146 151" version="1.1" xmlns="http://www.w3.org/2000/svg" xmlns:xlink="http://www.w3.org/1999/xlink">
    <!-- Generator: Sketch 42 (36781) - http://www.bohemiancoding.com/sketch -->
    <title>Belarus</title>
    <desc>Created with Sketch.</desc>
    <defs>
        <path d="M97.457,29.197 C96.235,64.875 50.271,93.351 44.221,111.332 C38.834,100.441 0.1,84.699 0.48,50.39 C0.798,21.881 15.635,12.957 23.715,12.957 C34.999,12.957 39.659,21.571 40.421,25.385 C41.182,29.197 45.453,32.245 46.825,25.994 C48.198,19.743 61.474,0.682 77.788,0.682 C92.73,0.682 97.905,16.09 97.457,29.197 Z" id="path-1"></path>
        <path d="M13.48,59.39 C13.798,30.881 28.635,21.957 36.715,21.957 C47.999,21.957 52.659,30.571 53.421,34.385 C54.182,38.197 58.453,41.245 59.825,34.994 C61.198,28.743 74.474,9.682 90.788,9.682 C105.73,9.682 110.905,25.09 110.457,38.197 C109.235,73.875 63.271,102.351 57.221,120.332 C51.834,109.441 13.1,93.699 13.48,59.39 M96.125,0.84 C82.707,0.84 66.838,10.75 57.233,27.219 C54.641,21.271 45.407,14.79 34.43,14.79 C25.585,14.79 0.757,25.845 0.757,61.525 C0.757,107.573 47.345,117.031 56.763,131.342 C57.41,132.327 59.495,133.071 60.29,130.718 C67.805,108.539 126.077,83.482 126.077,38.349 C126.077,13.038 109.543,0.84 96.125,0.84" id="path-3"></path>
        <filter x="-50%" y="-50%" width="200%" height="200%" filterUnits="objectBoundingBox" id="filter-4">
            <feOffset dx="0" dy="0" in="SourceAlpha" result="shadowOffsetOuter1"></feOffset>
            <feGaussianBlur stdDeviation="5" in="shadowOffsetOuter1" result="shadowBlurOuter1"></feGaussianBlur>
            <feColorMatrix values="0 0 0 0 0   0 0 0 0 0   0 0 0 0 0  0 0 0 0.266191123 0" type="matrix" in="shadowBlurOuter1"></feColorMatrix>
        </filter>
    </defs>
    <g id="Page-1" stroke="none" stroke-width="1" fill="none" fill-rule="evenodd">
        <g id="Belarus" transform="translate(9.636719, 9.634766)">
            <g id="Group-16" transform="translate(13.000000, 9.000000)">
                <mask id="mask-2" fill="white">
                    <use xlink:href="#path-1"></use>
                </mask>
                <g id="Clip-4"></g>
                <path d="M44.221,111.332 C41.873,106.585 33.191,100.917 24.173,93.192 L24.173,72.848 L81.116,66.842 C66.878,85.151 47.954,100.239 44.221,111.332" id="Fill-3" fill="#68B757" mask="url(#mask-2)"></path>
                <path d="M24.173,93.192 C23.48,92.598 22.782,91.99 22.088,91.371 L22.088,91.238 L23.132,91.129 L23.132,89.354 L24.173,89.244 L24.173,93.192" id="Fill-5" fill="#FFFFFF" mask="url(#mask-2)"></path>
                <path d="M18.964,88.487 C17.943,87.508 16.933,86.499 15.943,85.459 L15.943,84.873 L15.44,84.926 C14.547,83.971 13.671,82.99 12.819,81.981 L12.819,81.651 L12.565,81.678 C11.941,80.93 11.331,80.169 10.737,79.391 L10.737,78.41 L11.778,78.299 L11.778,76.523 L12.819,76.412 L12.819,78.188 L13.864,78.079 L13.864,79.767 L14.905,79.657 L14.905,81.433 L15.946,81.324 L15.946,83.1 L16.987,82.989 L16.987,84.766 L17.926,84.666 L17.926,86.443 L18.966,86.333 L18.966,84.557 L20.008,84.446 L20.008,82.67 L21.049,82.56 L21.049,80.784 L22.091,80.674 L22.091,78.899 L23.132,78.79 L23.132,77.102 L24.173,76.992 L24.173,80.453 L23.132,80.564 L23.132,82.34 L24.173,82.231 L24.173,87.467 L23.132,87.578 L23.132,85.891 L22.088,86 L22.088,84.225 L21.046,84.336 L21.046,86.112 L20.004,86.221 L20.004,87.906 L18.964,88.016 L18.964,88.487" id="Fill-6" fill="#FFFFFF" mask="url(#mask-2)"></path>
                <path d="M21.046,89.574 L21.046,87.797 L22.088,87.688 L22.088,89.463 L21.046,89.574 M7.788,75.173 C5.812,72.06 4.128,68.721 2.876,65.124 L3.548,65.053 L3.548,63.277 L4.592,63.167 L4.592,64.943 L5.53,64.844 L5.53,66.621 L6.569,66.509 L6.569,68.286 L7.613,68.176 L7.613,69.864 L8.655,69.753 L8.655,71.529 L9.696,71.42 L9.696,73.196 L8.655,73.305 L8.655,75.081 L7.788,75.173" id="Fill-7" fill="#FFFFFF" mask="url(#mask-2)"></path>
                <path d="M16.984,75.974 L16.984,74.199 L15.943,74.308 L15.943,72.533 L14.902,72.642 L14.902,70.866 L15.943,70.756 L15.943,68.981 L16.984,68.87 L16.984,67.183 L17.922,67.084 L17.922,65.311 L18.964,65.2 L18.964,63.422 L20.004,63.314 L20.004,61.537 L21.046,61.428 L21.046,63.203 L22.088,63.094 L22.088,64.871 L23.132,64.761 L23.132,66.536 L24.173,66.424 L24.173,68.112 L23.132,68.223 L23.132,69.999 L24.173,69.888 L24.173,73.441 L23.132,73.549 L23.132,71.774 L22.088,71.883 L22.088,70.107 L21.046,70.218 L21.046,68.442 L20.004,68.551 L20.004,70.327 L18.964,70.438 L18.964,72.214 L17.922,72.323 L17.922,74.099 L18.964,73.989 L20.004,73.881 L20.004,75.655 L18.964,75.766 L17.922,75.875 L16.984,75.974 M11.778,69.424 L11.778,67.736 L10.737,67.845 L10.737,66.071 L9.696,66.18 L9.696,64.404 L8.655,64.515 L8.655,62.739 L7.613,62.848 L7.613,61.161 L6.572,61.27 L6.572,52.392 L7.613,52.281 L7.613,50.594 L8.655,50.485 L8.655,48.708 L9.696,48.599 L9.696,46.823 L10.737,46.713 L10.737,44.938 L11.778,44.828 L11.778,43.14 L12.819,43.03 L12.819,44.718 L13.861,44.608 L13.861,46.383 L14.905,46.274 L14.905,48.05 L15.946,47.94 L15.946,49.716 L16.987,49.606 L16.987,51.293 L17.926,51.194 L17.926,60.074 L16.987,60.171 L16.987,61.859 L15.946,61.97 L15.946,63.746 L14.905,63.857 L14.905,65.632 L13.861,65.741 L13.861,67.516 L12.819,67.627 L12.819,69.315 L11.778,69.424 M11.778,65.959 L11.778,65.959 L12.819,65.848 L12.819,64.072 L11.778,64.182 L11.778,65.959 M9.696,62.627 L9.696,62.627 L10.737,62.518 L10.737,60.83 L11.778,60.72 L11.778,58.944 L12.819,58.836 L12.819,60.611 L13.861,60.5 L13.861,62.187 L14.905,62.078 L14.905,58.615 L13.861,58.725 L13.861,56.948 L12.819,57.059 L12.819,55.283 L13.861,55.174 L13.861,53.398 L14.905,53.289 L14.905,49.826 L13.861,49.935 L13.861,51.622 L12.819,51.732 L12.819,53.507 L11.778,53.618 L11.778,51.842 L10.737,51.953 L10.737,50.265 L9.696,50.374 L9.696,53.839 L10.737,53.729 L10.737,55.505 L11.778,55.395 L11.778,57.169 L10.737,57.279 L10.737,59.056 L9.696,59.165 L9.696,62.627 M7.819,57.588 L7.819,57.588 L8.864,57.477 L8.864,55.702 L7.819,55.812 L7.819,57.588 M15.737,56.753 L15.737,56.753 L16.778,56.642 L16.778,54.867 L15.737,54.977 L15.737,56.753 M11.778,48.38 L11.778,48.38 L12.819,48.27 L12.819,46.494 L11.778,46.604 L11.778,48.38 M1.857,61.768 C1.006,58.499 0.517,55.032 0.48,51.346 L1.466,51.243 L1.466,52.93 L2.507,52.821 L2.507,54.596 L3.548,54.486 L3.548,56.262 L4.592,56.151 L4.592,57.927 L3.548,58.037 L3.548,59.813 L2.507,59.923 L2.507,61.7 L1.857,61.768" id="Fill-8" fill="#FFFFFF" mask="url(#mask-2)"></path>
                <path d="M23.132,61.208 L23.132,59.522 L22.088,59.631 L22.088,57.858 L21.046,57.967 L21.046,56.191 L20.004,56.3 L20.004,54.527 L21.046,54.417 L21.046,52.639 L22.088,52.53 L22.088,50.755 L23.132,50.645 L23.132,48.958 L24.173,48.848 L24.173,61.097 L23.132,61.208 M3.548,51.024 L3.548,49.247 L2.507,49.357 L2.507,47.582 L1.466,47.691 L1.466,45.916 L0.651,46.002 C0.69,45.425 0.736,44.86 0.788,44.301 L1.469,44.23 L1.469,42.453 L0.979,42.505 C1.116,41.368 1.279,40.271 1.466,39.211 L1.466,40.677 L2.507,40.567 L2.507,42.343 L3.548,42.233 L3.548,44.008 L4.592,43.899 L4.592,42.123 L5.53,42.025 L5.53,40.249 L6.569,40.139 L6.569,38.363 L5.53,38.472 L4.592,38.572 L4.592,36.795 L5.53,36.697 L6.569,36.587 L7.613,36.477 L7.613,38.253 L8.655,38.143 L8.655,39.919 L9.696,39.81 L9.696,41.585 L8.655,41.694 L8.655,43.47 L7.613,43.58 L7.613,45.268 L6.569,45.377 L6.569,47.153 L5.53,47.263 L5.53,49.039 L4.592,49.138 L4.592,50.913 L3.548,51.024 M20.004,49.287 L20.004,47.511 L18.964,47.622 L18.964,45.845 L17.922,45.955 L17.922,44.18 L16.984,44.279 L16.984,42.591 L15.943,42.701 L15.943,40.925 L14.902,41.036 L14.902,39.259 L15.943,39.15 L15.943,37.375 L16.984,37.264 L16.984,35.488 L17.922,35.39 L18.964,35.279 L20.004,35.17 L20.004,36.945 L18.964,37.055 L17.922,37.165 L17.922,38.941 L18.964,38.831 L18.964,40.607 L20.004,40.497 L20.004,42.272 L21.046,42.163 L21.046,40.388 L22.088,40.278 L22.088,38.502 L23.132,38.392 L23.132,36.615 L24.173,36.505 L24.173,40.059 L23.132,40.169 L23.132,41.944 L24.173,41.834 L24.173,43.521 L23.132,43.631 L23.132,45.405 L22.088,45.516 L22.088,47.292 L21.046,47.402 L21.046,49.177 L20.004,49.287 M11.778,36.037 L11.778,34.262 L10.734,34.371 L10.734,32.685 L9.696,32.794 L9.696,31.019 L8.651,31.128 L8.651,29.353 L7.613,29.463 L7.613,27.687 L6.569,27.797 L6.569,26.021 L5.795,26.103 C6.127,25.481 6.47,24.882 6.822,24.31 L7.613,24.227 L7.613,25.915 L8.655,25.805 L8.655,27.58 L9.696,27.47 L9.696,25.694 L10.737,25.585 L10.737,23.898 L11.778,23.788 L11.778,22.011 L10.737,22.121 L10.737,20.346 L9.696,20.456 L9.696,20.38 C10.375,19.599 11.071,18.889 11.778,18.244 L11.778,18.461 L12.819,18.351 L12.819,17.346 C13.854,16.504 14.904,15.796 15.943,15.212 L15.943,16.246 L16.987,16.137 L16.987,17.912 L17.922,17.814 L17.922,19.589 L18.966,19.48 L18.966,17.704 L20.004,17.593 L20.004,15.818 L21.049,15.709 L21.049,14.022 L22.091,13.911 L22.091,13.069 C22.656,12.993 23.199,12.957 23.715,12.957 C23.868,12.957 24.022,12.959 24.173,12.962 L24.173,13.691 L23.132,13.801 L23.132,15.487 L24.173,15.377 L24.173,20.704 L23.132,20.814 L23.132,19.039 L22.088,19.149 L22.088,17.373 L21.101,17.477 L21.046,17.483 L21.046,19.258 L20.004,19.368 L20.004,21.144 L18.964,21.253 L18.964,23.028 L20.004,22.919 L20.004,24.607 L21.046,24.498 L21.046,26.273 L22.088,26.163 L22.088,24.388 L23.132,24.278 L23.132,22.59 L24.173,22.48 L24.173,27.718 L23.132,27.828 L23.132,29.604 L24.173,29.494 L24.173,32.954 L23.132,33.064 L23.132,31.377 L22.088,31.487 L22.088,29.711 L21.046,29.821 L21.046,28.045 L20.004,28.155 L20.004,26.379 L18.964,26.489 L18.964,24.713 L17.922,24.823 L17.922,26.599 L16.984,26.698 L16.984,28.474 L15.943,28.584 L15.943,30.359 L14.902,30.469 L14.902,32.245 L13.861,32.355 L13.861,34.042 L12.819,34.151 L12.819,35.927 L11.778,36.037 M11.778,30.801 L11.778,30.801 L12.819,30.691 L12.819,27.14 L11.778,27.25 L11.778,30.801 M14.905,26.921 L14.905,26.921 L15.943,26.811 L15.943,25.035 L16.987,24.926 L16.987,23.238 L17.922,23.139 L17.922,21.363 L16.987,21.462 L16.987,19.687 L15.943,19.797 L15.943,18.021 L14.905,18.131 L14.905,19.907 L13.861,20.016 L13.861,21.792 L12.819,21.901 L12.819,23.677 L13.861,23.567 L13.861,25.255 L14.905,25.146 L14.905,26.921 M3.385,31.684 C3.439,31.528 3.493,31.372 3.548,31.219 L3.548,31.667 L3.385,31.684 M4.07,29.837 C4.239,29.411 4.413,28.996 4.592,28.589 L4.592,29.782 L4.07,29.837 M4.867,27.977 C5.082,27.509 5.304,27.053 5.53,26.61 L5.53,27.906 L4.867,27.977 M8.655,24.116 L8.655,22.341 L9.696,22.231 L9.696,24.007 L8.655,24.116 M14.905,23.458 L14.905,21.682 L15.943,21.572 L15.943,23.348 L14.905,23.458 M21.046,22.81 L21.046,21.034 L22.088,20.924 L22.088,22.7 L21.046,22.81 M17.922,14.35 L17.922,14.239 C18.274,14.09 18.621,13.956 18.966,13.834 L18.966,14.241 L17.922,14.35" id="Fill-9" fill="#FFFFFF" mask="url(#mask-2)"></path>
                <path d="M24.173,72.848 L24.173,12.962 C35.126,13.191 39.67,21.623 40.421,25.385 C40.866,27.614 42.511,29.582 44.075,29.582 C45.186,29.582 46.255,28.59 46.825,25.994 C48.198,19.743 61.474,0.682 77.788,0.682 C92.147,0.682 97.486,14.91 97.484,27.652 C97.483,28.169 97.475,28.685 97.457,29.197 C96.989,42.864 89.956,55.474 81.116,66.842 L24.173,72.848" id="Fill-10" fill="#DA3237" mask="url(#mask-2)"></path>
                <path d="M22.088,91.371 C21.042,90.439 19.997,89.478 18.964,88.487 L18.964,88.016 L20.004,87.906 L20.004,86.221 L21.046,86.112 L21.046,84.336 L22.088,84.225 L22.088,86 L23.132,85.891 L23.132,87.578 L24.173,87.467 L24.173,89.244 L23.132,89.354 L23.132,91.129 L22.088,91.238 L22.088,91.371 M21.046,89.574 L21.046,89.574 L22.088,89.463 L22.088,87.688 L21.046,87.797 L21.046,89.574" id="Fill-11" fill="#DA3237" mask="url(#mask-2)"></path>
                <path d="M15.943,85.459 C15.774,85.282 15.608,85.105 15.44,84.926 L15.943,84.873 L15.943,85.459" id="Fill-12" fill="#DA3237" mask="url(#mask-2)"></path>
                <path d="M17.926,86.443 L17.926,84.666 L16.987,84.766 L16.987,82.989 L15.946,83.1 L15.946,81.324 L14.905,81.433 L14.905,79.657 L13.864,79.767 L13.864,78.079 L12.819,78.188 L12.819,76.412 L11.778,76.523 L11.778,78.299 L10.737,78.41 L10.737,79.391 C9.7,78.034 8.712,76.627 7.788,75.173 L8.655,75.081 L8.655,73.305 L9.696,73.196 L9.696,71.42 L8.655,71.529 L8.655,69.753 L7.613,69.864 L7.613,68.176 L6.569,68.286 L6.569,66.509 L5.53,66.621 L5.53,64.844 L4.592,64.943 L4.592,63.167 L3.548,63.277 L3.548,65.053 L2.876,65.124 C2.495,64.03 2.153,62.91 1.857,61.768 L2.507,61.7 L2.507,59.923 L3.548,59.813 L3.548,58.037 L4.592,57.927 L4.592,56.151 L3.548,56.262 L3.548,54.486 L2.507,54.596 L2.507,52.821 L1.466,52.93 L1.466,51.243 L0.48,51.346 C0.478,51.195 0.477,51.043 0.477,50.891 C0.477,50.725 0.478,50.558 0.48,50.39 C0.497,48.873 0.555,47.41 0.651,46.002 L1.466,45.916 L1.466,47.691 L2.507,47.582 L2.507,49.357 L3.548,49.247 L3.548,51.024 L4.592,50.913 L4.592,49.138 L5.53,49.039 L5.53,47.263 L6.569,47.153 L6.569,45.377 L7.613,45.268 L7.613,43.58 L8.655,43.47 L8.655,41.694 L9.696,41.585 L9.696,39.81 L8.655,39.919 L8.655,38.143 L7.613,38.253 L7.613,36.477 L6.569,36.587 L5.53,36.697 L4.592,36.795 L4.592,38.572 L5.53,38.472 L6.569,38.363 L6.569,40.139 L5.53,40.249 L5.53,42.025 L4.592,42.123 L4.592,43.899 L3.548,44.008 L3.548,42.233 L2.507,42.343 L2.507,40.567 L1.466,40.677 L1.466,39.211 C1.954,36.449 2.605,33.947 3.385,31.684 L3.548,31.667 L3.548,31.219 C3.717,30.747 3.891,30.287 4.07,29.837 L4.592,29.782 L4.592,28.589 C4.682,28.382 4.774,28.178 4.867,27.977 L5.53,27.906 L5.53,26.61 C5.618,26.439 5.706,26.271 5.795,26.103 L6.569,26.021 L6.569,27.797 L7.613,27.687 L7.613,29.463 L8.651,29.353 L8.651,31.128 L9.696,31.019 L9.696,32.794 L10.734,32.685 L10.734,34.371 L11.778,34.262 L11.778,36.037 L12.819,35.927 L12.819,34.151 L13.861,34.042 L13.861,32.355 L14.902,32.245 L14.902,30.469 L15.943,30.359 L15.943,28.584 L16.984,28.474 L16.984,26.698 L17.922,26.599 L17.922,24.823 L18.964,24.713 L18.964,26.489 L20.004,26.379 L20.004,28.155 L21.046,28.045 L21.046,29.821 L22.088,29.711 L22.088,31.487 L23.132,31.377 L23.132,33.064 L24.173,32.954 L24.173,36.505 L23.132,36.615 L23.132,38.392 L22.088,38.502 L22.088,40.278 L21.046,40.388 L21.046,42.163 L20.004,42.272 L20.004,40.497 L18.964,40.607 L18.964,38.831 L17.922,38.941 L17.922,37.165 L18.964,37.055 L20.004,36.945 L20.004,35.17 L18.964,35.279 L17.922,35.39 L16.984,35.488 L16.984,37.264 L15.943,37.375 L15.943,39.15 L14.902,39.259 L14.902,41.036 L15.943,40.925 L15.943,42.701 L16.984,42.591 L16.984,44.279 L17.922,44.18 L17.922,45.955 L18.964,45.845 L18.964,47.622 L20.004,47.511 L20.004,49.287 L21.046,49.177 L21.046,47.402 L22.088,47.292 L22.088,45.516 L23.132,45.405 L23.132,43.631 L24.173,43.521 L24.173,48.848 L23.132,48.958 L23.132,50.645 L22.088,50.755 L22.088,52.53 L21.046,52.639 L21.046,54.417 L20.004,54.527 L20.004,56.3 L21.046,56.191 L21.046,57.967 L22.088,57.858 L22.088,59.631 L23.132,59.522 L23.132,61.208 L24.173,61.097 L24.173,66.424 L23.132,66.536 L23.132,64.761 L22.088,64.871 L22.088,63.094 L21.046,63.203 L21.046,61.428 L20.004,61.537 L20.004,63.314 L18.964,63.422 L18.964,65.2 L17.922,65.311 L17.922,67.084 L16.984,67.183 L16.984,68.87 L15.943,68.981 L15.943,70.756 L14.902,70.866 L14.902,72.642 L15.943,72.533 L15.943,74.308 L16.984,74.199 L16.984,75.974 L17.922,75.875 L18.964,75.766 L20.004,75.655 L20.004,73.881 L18.964,73.989 L17.922,74.099 L17.922,72.323 L18.964,72.214 L18.964,70.438 L20.004,70.327 L20.004,68.551 L21.046,68.442 L21.046,70.218 L22.088,70.107 L22.088,71.883 L23.132,71.774 L23.132,73.549 L24.173,73.441 L24.173,76.992 L23.132,77.102 L23.132,78.79 L22.091,78.899 L22.091,80.674 L21.049,80.784 L21.049,82.56 L20.008,82.67 L20.008,84.446 L18.966,84.557 L18.966,86.333 L17.926,86.443 M11.778,69.424 L11.778,69.424 L12.819,69.315 L12.819,67.627 L13.861,67.516 L13.861,65.741 L14.905,65.632 L14.905,63.857 L15.946,63.746 L15.946,61.97 L16.987,61.859 L16.987,60.171 L17.926,60.074 L17.926,51.194 L16.987,51.293 L16.987,49.606 L15.946,49.716 L15.946,47.94 L14.905,48.05 L14.905,46.274 L13.861,46.383 L13.861,44.608 L12.819,44.718 L12.819,43.03 L11.778,43.14 L11.778,44.828 L10.737,44.938 L10.737,46.713 L9.696,46.823 L9.696,48.599 L8.655,48.708 L8.655,50.485 L7.613,50.594 L7.613,52.281 L6.572,52.392 L6.572,61.27 L7.613,61.161 L7.613,62.848 L8.655,62.739 L8.655,64.515 L9.696,64.404 L9.696,66.18 L10.737,66.071 L10.737,67.845 L11.778,67.736 L11.778,69.424" id="Fill-13" fill="#DA3237" mask="url(#mask-2)"></path>
                <path d="M12.819,81.981 C12.734,81.88 12.649,81.779 12.565,81.678 L12.819,81.651 L12.819,81.981" id="Fill-14" fill="#DA3237" mask="url(#mask-2)"></path>
                <path d="M23.132,82.34 L23.132,80.564 L24.173,80.453 L24.173,82.231 L23.132,82.34 M23.132,69.999 L23.132,68.223 L24.173,68.112 L24.173,69.888 L23.132,69.999 M11.778,65.959 L11.778,64.182 L12.819,64.072 L12.819,65.848 L11.778,65.959 M9.696,62.627 L9.696,59.165 L10.737,59.056 L10.737,57.279 L11.778,57.169 L11.778,55.395 L10.737,55.505 L10.737,53.729 L9.696,53.839 L9.696,50.374 L10.737,50.265 L10.737,51.953 L11.778,51.842 L11.778,53.618 L12.819,53.507 L12.819,51.732 L13.861,51.622 L13.861,49.935 L14.905,49.826 L14.905,53.289 L13.861,53.398 L13.861,55.174 L12.819,55.283 L12.819,57.059 L13.861,56.948 L13.861,58.725 L14.905,58.615 L14.905,62.078 L13.861,62.187 L13.861,60.5 L12.819,60.611 L12.819,58.836 L11.778,58.944 L11.778,60.72 L10.737,60.83 L10.737,62.518 L9.696,62.627 M7.819,57.588 L7.819,55.812 L8.864,55.702 L8.864,57.477 L7.819,57.588 M15.737,56.753 L15.737,54.977 L16.778,54.867 L16.778,56.642 L15.737,56.753 M11.778,48.38 L11.778,46.604 L12.819,46.494 L12.819,48.27 L11.778,48.38 M0.788,44.301 C0.844,43.693 0.908,43.093 0.979,42.505 L1.469,42.453 L1.469,44.23 L0.788,44.301 M23.132,41.944 L23.132,40.169 L24.173,40.059 L24.173,41.834 L23.132,41.944 M11.778,30.801 L11.778,27.25 L12.819,27.14 L12.819,30.691 L11.778,30.801 M23.132,29.604 L23.132,27.828 L24.173,27.718 L24.173,29.494 L23.132,29.604 M8.655,27.58 L8.655,25.805 L7.613,25.915 L7.613,24.227 L6.822,24.31 C7.726,22.84 8.692,21.534 9.696,20.38 L9.696,20.456 L10.737,20.346 L10.737,22.121 L11.778,22.011 L11.778,23.788 L10.737,23.898 L10.737,25.585 L9.696,25.694 L9.696,27.47 L8.655,27.58 M8.655,24.116 L8.655,24.116 L9.696,24.007 L9.696,22.231 L8.655,22.341 L8.655,24.116 M14.905,26.921 L14.905,25.146 L13.861,25.255 L13.861,23.567 L12.819,23.677 L12.819,21.901 L13.861,21.792 L13.861,20.016 L14.905,19.907 L14.905,18.131 L15.943,18.021 L15.943,19.797 L16.987,19.687 L16.987,21.462 L17.922,21.363 L17.922,23.139 L16.987,23.238 L16.987,24.926 L15.943,25.035 L15.943,26.811 L14.905,26.921 M14.905,23.458 L14.905,23.458 L15.943,23.348 L15.943,21.572 L14.905,21.682 L14.905,23.458 M21.046,26.273 L21.046,24.498 L20.004,24.607 L20.004,22.919 L18.964,23.028 L18.964,21.253 L20.004,21.144 L20.004,19.368 L21.046,19.258 L21.046,17.483 L21.101,17.477 L22.088,17.373 L22.088,19.149 L23.132,19.039 L23.132,20.814 L24.173,20.704 L24.173,22.48 L23.132,22.59 L23.132,24.278 L22.088,24.388 L22.088,26.163 L21.046,26.273 M21.046,22.81 L21.046,22.81 L22.088,22.7 L22.088,20.924 L21.046,21.034 L21.046,22.81 M17.922,19.589 L17.922,17.814 L16.987,17.912 L16.987,16.137 L15.943,16.246 L15.943,15.212 C16.608,14.838 17.271,14.514 17.922,14.239 L17.922,14.35 L18.966,14.241 L18.966,13.834 C20.055,13.451 21.107,13.2 22.091,13.069 L22.091,13.911 L21.049,14.022 L21.049,15.709 L20.004,15.818 L20.004,17.593 L18.966,17.704 L18.966,19.48 L17.922,19.589 M11.778,18.461 L11.778,18.244 C12.123,17.929 12.471,17.63 12.819,17.346 L12.819,18.351 L11.778,18.461 M23.132,15.487 L23.132,13.801 L24.173,13.691 L24.173,15.377 L23.132,15.487" id="Fill-15" fill="#DA3237" mask="url(#mask-2)"></path>
            </g>
            <g id="Fill-1">
                <use fill="black" fill-opacity="1" filter="url(#filter-4)" xlink:href="#path-3"></use>
                <use fill="#FFFFFF" fill-rule="evenodd" xlink:href="#path-3"></use>
            </g>
        </g>
    </g>
</svg>