<?xml version="1.0" encoding="UTF-8"?>
<svg width="146px" height="151px" viewBox="0 0 146 151" version="1.1" xmlns="http://www.w3.org/2000/svg" xmlns:xlink="http://www.w3.org/1999/xlink">
    <!-- Generator: Sketch 42 (36781) - http://www.bohemiancoding.com/sketch -->
    <title>Georgia</title>
    <desc>Created with Sketch.</desc>
    <defs>
        <path d="M0.48,50.39 C0.798,21.881 15.635,12.957 23.715,12.957 C34.999,12.957 39.659,21.571 40.421,25.385 C41.182,29.197 45.453,32.245 46.825,25.994 C48.198,19.743 61.474,0.682 77.788,0.682 C92.73,0.682 97.905,16.09 97.457,29.197 C96.235,64.875 50.271,93.351 44.221,111.332 C38.834,100.441 0.1,84.699 0.48,50.39 Z" id="path-1"></path>
        <path d="M13.48,59.39 C13.798,30.88 28.635,21.957 36.715,21.957 C47.999,21.957 52.659,30.571 53.421,34.385 C54.182,38.197 58.453,41.245 59.825,34.994 C61.198,28.743 74.474,9.682 90.788,9.682 C105.73,9.682 110.905,25.09 110.457,38.197 C109.235,73.875 63.271,102.351 57.221,120.332 C51.834,109.441 13.1,93.699 13.48,59.39 Z M96.125,0.84 C82.707,0.84 66.838,10.75 57.233,27.219 C54.641,21.271 45.407,14.79 34.43,14.79 C25.585,14.79 0.757,25.845 0.757,61.525 C0.757,107.573 47.345,117.031 56.763,131.342 C57.41,132.327 59.495,133.07 60.29,130.718 C67.805,108.539 126.077,83.482 126.077,38.349 C126.077,13.038 109.543,0.84 96.125,0.84 L96.125,0.84 Z" id="path-3"></path>
        <filter x="-50%" y="-50%" width="200%" height="200%" filterUnits="objectBoundingBox" id="filter-4">
            <feOffset dx="0" dy="0" in="SourceAlpha" result="shadowOffsetOuter1"></feOffset>
            <feGaussianBlur stdDeviation="5" in="shadowOffsetOuter1" result="shadowBlurOuter1"></feGaussianBlur>
            <feColorMatrix values="0 0 0 0 0   0 0 0 0 0   0 0 0 0 0  0 0 0 0.266191123 0" type="matrix" in="shadowBlurOuter1"></feColorMatrix>
        </filter>
    </defs>
    <g id="Page-1" stroke="none" stroke-width="1" fill="none" fill-rule="evenodd">
        <g id="Georgia" transform="translate(9.777344, 9.246094)">
            <path d="M13.48,59.39 C13.798,30.881 28.635,21.957 36.715,21.957 C47.999,21.957 52.659,30.571 53.421,34.385 C54.182,38.197 58.453,41.245 59.825,34.994 C61.198,28.743 74.474,9.682 90.788,9.682 C105.73,9.682 110.905,25.09 110.457,38.197 C109.235,73.875 63.271,102.351 57.221,120.332 C51.834,109.441 13.1,93.699 13.48,59.39" id="Fill-1" fill="#FFFFFF"></path>
            <g id="Group-12" transform="translate(13.000000, 9.000000)">
                <mask id="mask-2" fill="white">
                    <use xlink:href="#path-1"></use>
                </mask>
                <g id="Clip-3"></g>
                <path d="M0.493,52.08 C0.483,51.687 0.477,51.289 0.477,50.891 C0.477,50.725 0.478,50.558 0.48,50.39 C0.798,21.881 15.635,12.957 23.715,12.957 C30.267,12.957 34.585,15.861 37.205,19.044 L37.422,48.184 L0.493,52.08 M17.262,44.939 L17.262,44.939 C18.02,44.769 18.792,44.64 19.573,44.558 C19.66,44.548 19.747,44.54 19.833,44.532 C19.842,44.531 19.851,44.53 19.861,44.529 L19.867,44.529 C19.868,44.529 19.87,44.528 19.871,44.528 C19.881,44.527 19.891,44.526 19.902,44.526 C20.485,44.474 21.061,44.449 21.631,44.449 L21.639,44.449 L21.64,44.449 C21.681,44.449 21.722,44.449 21.763,44.45 C21.805,44.45 21.846,44.45 21.887,44.451 C21.615,42.963 21.437,41.432 21.363,39.864 C22.04,39.826 22.712,39.807 23.379,39.807 L23.384,39.807 L23.39,39.807 C24.179,39.807 24.961,39.833 25.735,39.885 C25.747,39.886 25.759,39.886 25.771,39.887 C25.777,39.888 25.783,39.888 25.789,39.888 C25.854,39.893 25.92,39.898 25.986,39.902 C25.898,39.151 25.849,38.382 25.849,37.597 C25.849,36.812 25.898,36.033 25.986,35.262 C24.474,35.692 22.932,36.035 21.363,36.277 C21.437,34.694 21.615,33.125 21.887,31.58 C21.127,31.749 20.356,31.878 19.573,31.961 C19.541,31.964 19.509,31.968 19.476,31.971 L19.475,31.971 C19.46,31.973 19.446,31.974 19.432,31.975 C18.789,32.038 18.152,32.069 17.525,32.069 L17.515,32.069 L17.513,32.069 L17.391,32.069 C17.348,32.068 17.305,32.068 17.262,32.067 C17.531,33.556 17.71,35.086 17.787,36.653 C17.108,36.692 16.434,36.711 15.766,36.711 L15.761,36.711 L15.756,36.711 C14.968,36.711 14.187,36.685 13.414,36.634 C13.359,36.63 13.303,36.626 13.248,36.622 C13.244,36.622 13.24,36.622 13.236,36.621 C13.211,36.62 13.186,36.618 13.161,36.616 C13.252,37.367 13.3,38.136 13.3,38.921 C13.3,39.707 13.252,40.485 13.161,41.256 C14.673,40.825 16.216,40.484 17.787,40.241 C17.71,41.825 17.531,43.393 17.262,44.939" id="Fill-2" fill="#FFFFFF" mask="url(#mask-2)"></path>
                <path d="M37.164,103.767 C26.827,95.114 9.003,83.299 2.736,64.715 L37.422,61.055 L37.164,103.767 M18.758,81.558 L18.758,81.558 C19.516,81.388 20.289,81.259 21.07,81.177 C21.083,81.175 21.097,81.174 21.11,81.173 C21.788,81.102 22.455,81.069 23.115,81.069 L23.126,81.069 L23.127,81.069 L23.253,81.069 C23.296,81.069 23.34,81.07 23.384,81.07 C23.112,79.582 22.934,78.052 22.859,76.484 C22.892,76.482 22.926,76.48 22.959,76.478 C23.602,76.443 24.24,76.426 24.873,76.426 L24.877,76.426 L24.883,76.426 C25.731,76.426 26.571,76.457 27.402,76.516 C27.429,76.518 27.456,76.52 27.482,76.522 C27.395,75.771 27.346,75.002 27.346,74.216 C27.346,73.431 27.395,72.653 27.482,71.882 C25.97,72.312 24.429,72.654 22.859,72.896 C22.934,71.312 23.112,69.744 23.384,68.199 C22.624,68.368 21.854,68.498 21.07,68.581 C21.043,68.583 21.017,68.586 20.991,68.589 C20.328,68.656 19.673,68.687 19.027,68.688 L19.019,68.688 L19.018,68.688 C18.975,68.688 18.933,68.688 18.891,68.687 L18.888,68.687 L18.83,68.687 C18.806,68.687 18.782,68.686 18.758,68.686 C19.028,70.175 19.206,71.705 19.283,73.273 C19.172,73.279 19.061,73.285 18.95,73.29 C18.385,73.317 17.823,73.33 17.265,73.33 L17.261,73.33 L17.255,73.33 C16.448,73.33 15.649,73.302 14.858,73.249 C14.791,73.244 14.724,73.239 14.657,73.235 C14.749,73.986 14.796,74.755 14.796,75.54 C14.796,76.326 14.749,77.105 14.657,77.875 C16.169,77.445 17.713,77.103 19.283,76.86 C19.206,78.445 19.028,80.012 18.758,81.558" id="Fill-4" fill="#FFFFFF" mask="url(#mask-2)"></path>
                <path d="M49.993,101.719 L50.248,59.703 L88.965,55.428 C78.143,73.761 59.708,89.402 49.993,101.719 M65.035,76.557 L65.035,76.557 C65.795,76.387 66.565,76.257 67.347,76.175 C67.362,76.173 67.378,76.172 67.394,76.17 C67.481,76.161 67.569,76.153 67.656,76.145 C67.684,76.142 67.712,76.14 67.739,76.138 C68.301,76.09 68.855,76.067 69.403,76.067 L69.414,76.067 L69.415,76.067 C69.497,76.067 69.579,76.067 69.66,76.068 C69.389,74.58 69.211,73.05 69.133,71.482 C69.811,71.444 70.483,71.425 71.15,71.425 L71.154,71.425 L71.159,71.425 C71.953,71.425 72.738,71.452 73.516,71.503 C73.533,71.504 73.55,71.506 73.567,71.507 C73.632,71.511 73.697,71.516 73.762,71.521 C73.669,70.77 73.624,70.001 73.624,69.215 C73.624,68.429 73.669,67.651 73.762,66.88 C72.25,67.31 70.706,67.652 69.133,67.895 C69.211,66.311 69.389,64.743 69.66,63.197 C68.9,63.367 68.131,63.497 67.347,63.579 C67.261,63.588 67.176,63.597 67.09,63.604 C67.077,63.606 67.063,63.607 67.049,63.608 C67.039,63.609 67.029,63.61 67.02,63.611 C66.443,63.662 65.873,63.686 65.308,63.686 L65.3,63.686 L65.299,63.686 L65.138,63.686 C65.104,63.685 65.069,63.685 65.035,63.685 C65.306,65.174 65.482,66.704 65.561,68.272 C65.532,68.274 65.503,68.275 65.474,68.277 C65.448,68.278 65.421,68.28 65.395,68.281 C65.369,68.282 65.344,68.284 65.318,68.285 L65.307,68.285 C64.719,68.314 64.133,68.329 63.552,68.329 L63.548,68.329 L63.542,68.329 C62.724,68.329 61.914,68.3 61.113,68.246 C61.082,68.244 61.052,68.242 61.022,68.239 C60.993,68.237 60.964,68.235 60.935,68.233 C61.023,68.985 61.072,69.754 61.072,70.539 C61.072,71.324 61.023,72.103 60.935,72.873 C62.446,72.442 63.99,72.102 65.561,71.859 C65.482,73.443 65.306,75.011 65.035,76.557" id="Fill-5" fill="#FFFFFF" mask="url(#mask-2)"></path>
                <path d="M50.248,46.832 L50.041,19.256 C55.154,11.274 65.627,0.682 77.788,0.682 C92.147,0.682 97.486,14.91 97.484,27.652 C97.483,28.169 97.475,28.685 97.457,29.197 C97.309,33.53 96.501,37.755 95.184,41.87 L50.248,46.832 M65.534,40.436 L65.534,40.436 C66.294,40.266 67.064,40.137 67.847,40.055 C67.878,40.051 67.91,40.048 67.942,40.045 C67.957,40.043 67.972,40.042 67.988,40.04 C68.629,39.977 69.262,39.947 69.888,39.947 L69.896,39.947 L69.898,39.947 L70.03,39.947 C70.074,39.947 70.117,39.948 70.16,39.948 C69.889,38.46 69.709,36.929 69.633,35.362 C69.667,35.36 69.701,35.358 69.735,35.356 C70.377,35.322 71.015,35.305 71.648,35.304 L71.652,35.304 L71.658,35.304 C72.448,35.305 73.23,35.331 74.003,35.383 C74.024,35.384 74.045,35.386 74.067,35.387 C74.083,35.388 74.099,35.389 74.116,35.391 C74.164,35.394 74.212,35.397 74.26,35.401 C74.169,34.649 74.122,33.88 74.122,33.094 C74.122,32.309 74.169,31.531 74.26,30.761 C72.748,31.19 71.205,31.531 69.633,31.775 C69.709,30.19 69.889,28.623 70.16,27.077 C69.4,27.247 68.629,27.376 67.847,27.458 C67.162,27.531 66.487,27.566 65.82,27.566 L65.81,27.566 L65.808,27.566 C65.731,27.566 65.654,27.565 65.577,27.565 C65.563,27.564 65.548,27.564 65.534,27.564 C65.804,29.054 65.982,30.584 66.059,32.152 C65.384,32.19 64.715,32.209 64.051,32.209 L64.047,32.209 L64.042,32.209 C63.163,32.208 62.293,32.176 61.434,32.113 C61.522,32.865 61.571,33.633 61.571,34.419 C61.571,35.204 61.522,35.982 61.434,36.753 C62.945,36.323 64.488,35.982 66.059,35.739 C65.982,37.323 65.804,38.891 65.534,40.436" id="Fill-6" fill="#FFFFFF" mask="url(#mask-2)"></path>
                <path d="M44.221,111.332 C43.098,109.063 40.527,106.582 37.164,103.767 L37.422,61.055 L2.736,64.715 C1.42,60.812 0.613,56.613 0.493,52.08 L37.422,48.184 L37.205,19.044 C39.096,21.342 40.101,23.786 40.421,25.385 C40.866,27.614 42.511,29.582 44.075,29.582 C45.186,29.582 46.255,28.59 46.825,25.994 C47.175,24.402 48.295,21.981 50.041,19.256 L50.248,46.832 L95.184,41.87 C93.691,46.535 91.544,51.06 88.965,55.428 L50.248,59.703 L49.993,101.719 C47.253,105.192 45.207,108.402 44.221,111.332" id="Fill-7" fill="#D7283C" mask="url(#mask-2)"></path>
                <path d="M65.534,40.436 L65.534,40.436 C65.804,38.891 65.982,37.323 66.059,35.739 C64.488,35.982 62.945,36.323 61.434,36.753 C61.522,35.982 61.571,35.204 61.571,34.419 C61.571,33.633 61.522,32.865 61.434,32.113 C62.293,32.176 63.163,32.209 64.042,32.209 L64.047,32.209 L64.051,32.209 C64.715,32.209 65.384,32.19 66.059,32.152 C65.982,30.584 65.804,29.054 65.534,27.564 C65.548,27.564 65.563,27.564 65.577,27.565 C65.654,27.565 65.731,27.566 65.808,27.566 L65.81,27.566 L65.82,27.566 C66.487,27.566 67.162,27.531 67.847,27.458 C68.629,27.376 69.4,27.247 70.16,27.077 C69.889,28.623 69.709,30.19 69.633,31.775 C71.205,31.531 72.748,31.19 74.26,30.761 C74.169,31.531 74.122,32.309 74.122,33.094 C74.122,33.88 74.169,34.649 74.26,35.401 C74.212,35.397 74.164,35.394 74.116,35.391 C74.099,35.389 74.083,35.388 74.067,35.387 C74.045,35.386 74.024,35.384 74.003,35.383 C73.229,35.331 72.448,35.305 71.658,35.304 L71.652,35.304 L71.648,35.304 C71.015,35.305 70.377,35.322 69.735,35.356 C69.701,35.358 69.667,35.36 69.633,35.362 C69.709,36.929 69.889,38.46 70.16,39.948 C70.117,39.948 70.074,39.947 70.03,39.947 L69.898,39.947 L69.896,39.947 L69.888,39.947 C69.262,39.947 68.629,39.977 67.988,40.04 C67.972,40.042 67.957,40.043 67.942,40.045 C67.91,40.048 67.878,40.051 67.847,40.055 C67.064,40.137 66.294,40.266 65.534,40.436" id="Fill-8" fill="#D7283C" mask="url(#mask-2)"></path>
                <path d="M17.262,44.939 L17.262,44.939 C17.531,43.393 17.71,41.825 17.787,40.241 C16.216,40.484 14.673,40.825 13.161,41.256 C13.252,40.485 13.3,39.707 13.3,38.921 C13.3,38.136 13.252,37.367 13.161,36.616 C13.186,36.618 13.211,36.62 13.236,36.621 C13.24,36.622 13.244,36.622 13.248,36.622 C13.303,36.626 13.359,36.63 13.414,36.634 C14.187,36.685 14.968,36.711 15.756,36.711 L15.761,36.711 L15.766,36.711 C16.434,36.711 17.108,36.692 17.787,36.653 C17.71,35.086 17.531,33.556 17.262,32.067 C17.305,32.068 17.348,32.068 17.391,32.069 L17.513,32.069 L17.515,32.069 L17.525,32.069 C18.152,32.069 18.789,32.038 19.432,31.975 C19.446,31.974 19.46,31.973 19.475,31.971 L19.476,31.971 C19.509,31.968 19.541,31.964 19.573,31.961 C20.356,31.878 21.127,31.749 21.887,31.58 C21.615,33.125 21.437,34.694 21.363,36.277 C22.932,36.035 24.474,35.692 25.986,35.262 C25.898,36.033 25.849,36.812 25.849,37.597 C25.849,38.382 25.898,39.151 25.986,39.902 C25.92,39.898 25.854,39.893 25.789,39.888 C25.783,39.888 25.777,39.888 25.771,39.887 C25.759,39.886 25.747,39.886 25.735,39.885 C24.961,39.833 24.179,39.807 23.39,39.807 L23.384,39.807 L23.379,39.807 C22.712,39.807 22.04,39.826 21.363,39.864 C21.437,41.432 21.615,42.963 21.887,44.451 C21.846,44.45 21.805,44.45 21.763,44.45 C21.722,44.449 21.681,44.449 21.64,44.449 L21.639,44.449 L21.631,44.449 C21.061,44.449 20.485,44.474 19.902,44.526 C19.891,44.526 19.881,44.527 19.871,44.528 C19.87,44.528 19.868,44.529 19.867,44.529 L19.861,44.529 C19.851,44.53 19.842,44.531 19.833,44.532 C19.747,44.54 19.66,44.548 19.573,44.558 C18.792,44.64 18.02,44.769 17.262,44.939" id="Fill-9" fill="#D7283C" mask="url(#mask-2)"></path>
                <path d="M65.035,76.557 L65.035,76.557 C65.306,75.011 65.482,73.443 65.561,71.859 C63.99,72.102 62.446,72.442 60.935,72.873 C61.023,72.103 61.072,71.324 61.072,70.539 C61.072,69.754 61.023,68.985 60.935,68.233 C60.964,68.235 60.993,68.237 61.022,68.239 C61.052,68.242 61.082,68.244 61.113,68.246 C61.914,68.3 62.724,68.329 63.542,68.329 L63.548,68.329 L63.552,68.329 C64.133,68.329 64.719,68.314 65.307,68.285 L65.318,68.285 C65.344,68.284 65.369,68.282 65.395,68.281 C65.421,68.28 65.448,68.278 65.474,68.277 C65.503,68.275 65.532,68.274 65.561,68.272 C65.482,66.704 65.306,65.174 65.035,63.685 C65.069,63.685 65.104,63.685 65.138,63.686 L65.299,63.686 L65.3,63.686 L65.308,63.686 C65.873,63.686 66.443,63.662 67.02,63.611 C67.029,63.61 67.039,63.609 67.049,63.608 C67.063,63.607 67.077,63.606 67.09,63.604 C67.176,63.597 67.261,63.588 67.347,63.579 C68.131,63.497 68.9,63.367 69.66,63.197 C69.389,64.743 69.211,66.311 69.133,67.895 C70.706,67.652 72.25,67.31 73.762,66.88 C73.669,67.651 73.624,68.429 73.624,69.215 C73.624,70.001 73.669,70.77 73.762,71.521 C73.697,71.516 73.632,71.511 73.567,71.507 C73.55,71.506 73.533,71.504 73.516,71.503 C72.738,71.451 71.953,71.425 71.159,71.425 L71.154,71.425 L71.15,71.425 C70.483,71.425 69.811,71.444 69.133,71.482 C69.211,73.05 69.389,74.58 69.66,76.068 C69.579,76.067 69.497,76.067 69.415,76.067 L69.414,76.067 L69.403,76.067 C68.855,76.067 68.301,76.09 67.739,76.138 C67.712,76.14 67.684,76.142 67.656,76.145 C67.569,76.153 67.481,76.161 67.394,76.17 C67.378,76.172 67.362,76.173 67.347,76.175 C66.565,76.257 65.795,76.387 65.035,76.557" id="Fill-10" fill="#D7283C" mask="url(#mask-2)"></path>
                <path d="M18.758,81.558 L18.758,81.558 C19.028,80.012 19.206,78.445 19.283,76.86 C17.713,77.103 16.169,77.445 14.657,77.875 C14.749,77.105 14.796,76.326 14.796,75.54 C14.796,74.755 14.749,73.986 14.657,73.235 C14.724,73.239 14.791,73.244 14.858,73.249 C15.649,73.302 16.448,73.33 17.255,73.33 L17.261,73.33 L17.265,73.33 C17.823,73.33 18.385,73.317 18.95,73.29 C19.061,73.285 19.172,73.279 19.283,73.273 C19.206,71.705 19.028,70.175 18.758,68.686 C18.782,68.686 18.806,68.687 18.83,68.687 L18.888,68.687 L18.891,68.687 C18.933,68.688 18.975,68.688 19.018,68.688 L19.019,68.688 L19.027,68.688 C19.673,68.687 20.328,68.656 20.991,68.589 C21.017,68.586 21.043,68.583 21.07,68.581 C21.854,68.498 22.624,68.368 23.384,68.199 C23.112,69.744 22.934,71.312 22.859,72.896 C24.429,72.654 25.97,72.312 27.482,71.882 C27.395,72.653 27.346,73.431 27.346,74.216 C27.346,75.002 27.395,75.771 27.482,76.522 C27.456,76.52 27.429,76.518 27.402,76.516 C26.571,76.457 25.731,76.426 24.883,76.426 L24.877,76.426 L24.873,76.426 C24.24,76.426 23.602,76.443 22.959,76.478 C22.926,76.48 22.892,76.482 22.859,76.484 C22.934,78.052 23.112,79.582 23.384,81.07 C23.34,81.07 23.296,81.069 23.253,81.069 L23.127,81.069 L23.126,81.069 L23.115,81.069 C22.455,81.069 21.788,81.102 21.11,81.173 C21.097,81.174 21.083,81.175 21.07,81.177 C20.289,81.259 19.516,81.388 18.758,81.558" id="Fill-11" fill="#D7283C" mask="url(#mask-2)"></path>
            </g>
            <g id="Fill-36">
                <use fill="black" fill-opacity="1" filter="url(#filter-4)" xlink:href="#path-3"></use>
                <use fill="#FFFFFF" fill-rule="evenodd" xlink:href="#path-3"></use>
            </g>
        </g>
    </g>
</svg>