<?xml version="1.0" encoding="UTF-8"?>
<svg width="146px" height="151px" viewBox="0 0 146 151" version="1.1" xmlns="http://www.w3.org/2000/svg" xmlns:xlink="http://www.w3.org/1999/xlink">
    <!-- Generator: Sketch 42 (36781) - http://www.bohemiancoding.com/sketch -->
    <title>Greece</title>
    <desc>Created with Sketch.</desc>
    <defs>
        <path d="M77.2084881,0.69 C61.1605753,1.13260181 48.1817062,19.8171826 46.825,25.994 C45.453,32.245 41.182,29.197 40.421,25.385 C39.659,21.571 34.999,12.957 23.715,12.957 C15.635,12.957 0.798,21.881 0.48,50.39 C0.1,84.699 38.834,100.441 44.221,111.332 C50.271,93.351 96.235,64.875 97.457,29.197 C97.4735023,28.7141987 97.482375,28.2282753 97.483411,27.7401148 L97.483411,27.5466035 C97.4567975,15.0067713 92.2531661,1.0712118 78.3741219,0.69 L77.2084881,0.69 L77.2084881,0.69 Z" id="path-1"></path>
        <path d="M13.48,59.39 C13.798,30.88 28.635,21.957 36.715,21.957 C47.999,21.957 52.659,30.571 53.421,34.385 C54.182,38.197 58.453,41.245 59.825,34.994 C61.198,28.743 74.474,9.682 90.788,9.682 C105.73,9.682 110.905,25.09 110.457,38.197 C109.235,73.875 63.271,102.351 57.221,120.332 C51.834,109.441 13.1,93.699 13.48,59.39 Z M96.125,0.84 C82.707,0.84 66.838,10.75 57.233,27.219 C54.641,21.271 45.407,14.79 34.43,14.79 C25.585,14.79 0.757,25.845 0.757,61.525 C0.757,107.573 47.345,117.031 56.763,131.342 C57.41,132.327 59.495,133.07 60.29,130.718 C67.805,108.539 126.077,83.482 126.077,38.349 C126.077,13.038 109.543,0.84 96.125,0.84 L96.125,0.84 Z" id="path-3"></path>
        <filter x="-50%" y="-50%" width="200%" height="200%" filterUnits="objectBoundingBox" id="filter-4">
            <feOffset dx="0" dy="0" in="SourceAlpha" result="shadowOffsetOuter1"></feOffset>
            <feGaussianBlur stdDeviation="5" in="shadowOffsetOuter1" result="shadowBlurOuter1"></feGaussianBlur>
            <feColorMatrix values="0 0 0 0 0   0 0 0 0 0   0 0 0 0 0  0 0 0 0.266191123 0" type="matrix" in="shadowBlurOuter1"></feColorMatrix>
        </filter>
    </defs>
    <g id="Page-1" stroke="none" stroke-width="1" fill="none" fill-rule="evenodd">
        <g id="Greece" transform="translate(9.777344, 9.429688)">
            <g id="Group-13" transform="translate(13.000000, 9.000000)">
                <mask id="mask-2" fill="white">
                    <use xlink:href="#path-1"></use>
                </mask>
                <g id="Clip-2"></g>
                <path d="M54.353,50.958 L54.353,39.024 L96.943,34.531 C96.278,38.746 95.025,42.852 93.331,46.846 L54.353,50.958" id="Fill-1" fill="#FFFFFF" mask="url(#mask-2)"></path>
                <path d="M33.617,100.881 C29.741,97.782 25.268,94.294 20.888,90.288 L64.503,85.688 C60.027,90.415 55.785,94.828 52.304,98.91 L33.617,100.881" id="Fill-3" fill="#FFFFFF" mask="url(#mask-2)"></path>
                <path d="M10.762,79.424 C8.141,75.996 5.834,72.269 4.073,68.195 L18.679,66.653 L18.679,42.788 L0.754,44.678 C1.159,40.027 1.987,35.987 3.114,32.496 L18.679,30.853 L18.679,13.938 C20.499,13.262 22.222,12.957 23.715,12.957 C26.351,12.957 28.625,13.427 30.572,14.196 L30.572,29.599 L41.903,28.404 C42.551,29.126 43.322,29.582 44.075,29.582 C44.844,29.582 45.592,29.107 46.17,27.954 L54.353,27.091 L54.353,39.024 L30.572,41.532 L30.572,65.4 L54.353,62.892 L86.406,59.511 C83.424,64.013 80.04,68.342 76.51,72.488 L10.762,79.424" id="Fill-4" fill="#FFFFFF" mask="url(#mask-2)"></path>
                <path d="M54.353,27.091 L54.353,15.157 L93.909,10.984 C95.673,14.451 96.73,18.481 97.198,22.571 L54.353,27.091" id="Fill-5" fill="#FFFFFF" mask="url(#mask-2)"></path>
                <path d="M20.888,90.288 C17.328,87.033 13.83,83.435 10.762,79.424 L76.51,72.488 C72.569,77.12 68.444,81.526 64.503,85.688 L20.888,90.288" id="Fill-6" fill="#1A5F9B" mask="url(#mask-2)"></path>
                <path d="M44.221,111.332 C42.729,108.317 38.683,104.931 33.617,100.881 L52.304,98.91 C48.408,103.477 45.467,107.627 44.221,111.332" id="Fill-7" fill="#1A5F9B" mask="url(#mask-2)"></path>
                <path d="M3.114,32.496 C6.647,21.552 13.114,16.007 18.679,13.938 L18.679,30.853 L3.114,32.496" id="Fill-8" fill="#1A5F9B" mask="url(#mask-2)"></path>
                <path d="M4.073,68.195 C1.776,62.88 0.407,56.976 0.48,50.39 C0.502,48.391 0.596,46.489 0.754,44.678 L18.679,42.788 L18.679,66.653 L4.073,68.195" id="Fill-9" fill="#1A5F9B" mask="url(#mask-2)"></path>
                <path d="M30.572,29.599 L30.572,14.196 C36.963,16.719 39.837,22.462 40.421,25.385 C40.652,26.541 41.205,27.627 41.903,28.404 L30.572,29.599 M46.17,27.954 C46.427,27.441 46.65,26.793 46.825,25.994 C48.053,20.405 58.796,4.575 72.718,1.285 L78.365,0.69 C85.941,0.894 90.932,5.135 93.909,10.984 L54.353,15.157 L54.353,27.091 L46.17,27.954" id="Fill-10" fill="#1A5F9B" mask="url(#mask-2)"></path>
                <path d="M30.572,65.4 L30.572,41.532 L54.353,39.024 L54.353,50.958 L93.331,46.846 C91.483,51.205 89.11,55.429 86.406,59.511 L54.353,62.892 L30.572,65.4" id="Fill-11" fill="#1A5F9B" mask="url(#mask-2)"></path>
                <path d="M54.353,39.024 L54.353,27.091 L97.198,22.571 C97.451,24.789 97.531,27.025 97.457,29.197 C97.396,30.993 97.221,32.771 96.943,34.531 L54.353,39.024" id="Fill-12" fill="#1A5F9B" mask="url(#mask-2)"></path>
            </g>
            <g id="Fill-37">
                <use fill="black" fill-opacity="1" filter="url(#filter-4)" xlink:href="#path-3"></use>
                <use fill="#FFFFFF" fill-rule="evenodd" xlink:href="#path-3"></use>
            </g>
        </g>
    </g>
</svg>