<?xml version="1.0" encoding="UTF-8"?>
<svg width="146px" height="151px" 
viewBox="0 0 146 151" 
preserveAspectRatio="xMinYMin"
xmlns="http://www.w3.org/2000/svg">
<!-- Generator: FilePond Image Transform Plugin - https://pqina.nl/filepond -->
<title>Iceland</title>
<desc>Cropped with FilePond.</desc>
<g transform="rotate(0 73 75.5) translate(73 75.5) scale(1) translate(-73 -75.5) translate(0 0)">
<g transform="scale(1 1) translate(0 0)">
<svg width="146" height="151" viewBox="0 0 146 151" version="1.1" xmlns="http://www.w3.org/2000/svg" xmlns:xlink="http://www.w3.org/1999/xlink" style="overflow: visible;">
    <!-- Generator: Sketch 42 (36781) - http://www.bohemiancoding.com/sketch -->
    <title>Iceland</title>
    <desc>Created with Sketch.</desc>
    <defs>
        <path d="M0.477304093,50.9765085 C0.541713835,84.8788025 38.8647918,100.503252 44.221,111.332 C50.271,93.351 96.235,64.875 97.457,29.197 C97.905,16.09 92.73,0.682 77.788,0.682 C61.474,0.682 48.198,19.743 46.825,25.994 C45.453,32.245 41.182,29.197 40.421,25.385 C39.659,21.571 34.999,12.957 23.715,12.957 C15.635,12.957 0.798,21.881 0.48,50.39 C0.478463356,50.5287387 0.477566317,50.6671738 0.47730409,50.8053061 L0.477304093,50.9765126 L0.477304093,50.9765085 Z" id="path-1"></path>
        <path d="M13.48,59.39 C13.798,30.88 28.635,21.957 36.715,21.957 C47.999,21.957 52.659,30.571 53.421,34.385 C54.182,38.197 58.453,41.245 59.825,34.994 C61.198,28.743 74.474,9.682 90.788,9.682 C105.73,9.682 110.905,25.09 110.457,38.197 C109.235,73.875 63.271,102.351 57.221,120.332 C51.834,109.441 13.1,93.699 13.48,59.39 Z M96.125,0.84 C82.707,0.84 66.838,10.75 57.233,27.219 C54.641,21.271 45.407,14.79 34.43,14.79 C25.585,14.79 0.757,25.845 0.757,61.525 C0.757,107.573 47.345,117.031 56.763,131.342 C57.41,132.327 59.495,133.07 60.29,130.718 C67.805,108.539 126.077,83.482 126.077,38.349 C126.077,13.038 109.543,0.84 96.125,0.84 L96.125,0.84 Z" id="path-3"></path>
        <filter x="-50%" y="-50%" width="200%" height="200%" filterUnits="objectBoundingBox" id="filter-4">
            <feOffset dx="0" dy="0" in="SourceAlpha" result="shadowOffsetOuter1"></feOffset>
            <feGaussianBlur stdDeviation="5" in="shadowOffsetOuter1" result="shadowBlurOuter1"></feGaussianBlur>
            <feColorMatrix values="0 0 0 0 0   0 0 0 0 0   0 0 0 0 0  0 0 0 0.266191123 0" type="matrix" in="shadowBlurOuter1"></feColorMatrix>
        </filter>
    </defs>
    <g id="Page-1" stroke="none" stroke-width="1" fill="none" fill-rule="evenodd">
        <g id="Iceland" transform="translate(9.339844, 9.634766)">
            <g id="Group-11" transform="translate(13.000000, 9.000000)">
                <mask id="mask-2" fill="white">
                    <use xlink:href="#path-1"></use>
                </mask>
                <g id="Clip-2"></g>
                <path d="M50.204,45.011 L50.204,19.003 C55.374,11.052 65.754,0.682 77.788,0.682 C92.73,0.682 97.905,16.09 97.457,29.197 C97.329,32.951 96.705,36.623 95.685,40.214 L50.204,45.011" id="Fill-1" fill="#1D66A3" mask="url(#mask-2)"></path>
                <path d="M27.156,95.69 C19.756,89.614 11.658,82.193 6.348,72.769 L27.156,70.574 L27.156,95.69" id="Fill-3" fill="#1D66A3" mask="url(#mask-2)"></path>
                <path d="M50.204,101.452 L50.204,68.142 L82.74,64.71 C72.11,78.956 58.269,91.318 50.204,101.452" id="Fill-4" fill="#1D66A3" mask="url(#mask-2)"></path>
                <path d="M0.482,50.257 C0.845,21.854 15.648,12.957 23.715,12.957 C24.939,12.957 26.084,13.058 27.156,13.244 L27.156,47.443 L0.482,50.257" id="Fill-5" fill="#1D66A3" mask="url(#mask-2)"></path>
                <path d="M32.916,100.321 C31.092,98.866 29.149,97.327 27.156,95.69 L27.156,70.574 L6.348,72.769 C5.355,71.007 4.46,69.174 3.685,67.267 L32.916,64.183 L32.916,100.321" id="Fill-6" fill="#FFFFFF" mask="url(#mask-2)"></path>
                <path d="M44.442,51.402 L44.442,29.544 C45.417,29.342 46.319,28.302 46.825,25.994 C47.185,24.354 48.365,21.832 50.204,19.003 L50.204,45.011 L95.685,40.214 C95.109,42.24 94.405,44.245 93.594,46.217 L44.442,51.402" id="Fill-7" fill="#FFFFFF" mask="url(#mask-2)"></path>
                <path d="M0.775,56.009 C0.561,54.193 0.459,52.321 0.48,50.39 C0.481,50.345 0.481,50.302 0.482,50.257 L27.156,47.443 L27.156,13.244 C29.388,13.631 31.299,14.383 32.916,15.346 L32.916,52.617 L0.775,56.009" id="Fill-8" fill="#FFFFFF" mask="url(#mask-2)"></path>
                <path d="M44.442,110.715 L44.442,62.968 L87.087,58.469 C85.722,60.587 84.263,62.669 82.74,64.71 L50.204,68.142 L50.204,101.452 C47.552,104.785 45.524,107.877 44.442,110.715" id="Fill-9" fill="#FFFFFF" mask="url(#mask-2)"></path>
                <path d="M44.221,111.332 C42.661,108.179 38.307,104.62 32.916,100.321 L32.916,64.183 L3.685,67.267 C2.264,63.772 1.247,60.03 0.775,56.009 L32.916,52.617 L32.916,15.346 C37.68,18.182 39.914,22.847 40.421,25.385 C40.866,27.614 42.511,29.582 44.075,29.582 C44.198,29.582 44.321,29.57 44.442,29.544 L44.442,51.402 L93.594,46.217 C91.862,50.428 89.636,54.514 87.087,58.469 L44.442,62.968 L44.442,110.715 C44.364,110.922 44.289,111.128 44.221,111.332" id="Fill-10" fill="#DE4540" mask="url(#mask-2)"></path>
            </g>
            <g id="Fill-35">
                <use fill="black" fill-opacity="1" filter="url(#filter-4)" xlink:href="#path-3"></use>
                <use fill="#FFFFFF" fill-rule="evenodd" xlink:href="#path-3"></use>
            </g>
        </g>
    </g>
</svg>
</g>
</g>
</svg>