<?xml version="1.0" encoding="UTF-8"?>
<svg width="145px" height="150px" viewBox="0 0 145 150" version="1.1" xmlns="http://www.w3.org/2000/svg" xmlns:xlink="http://www.w3.org/1999/xlink">
    <!-- Generator: Sketch 42 (36781) - http://www.bohemiancoding.com/sketch -->
    <title>Monaco</title>
    <desc>Created with Sketch.</desc>
    <defs>
        <path d="M0.476363636,50.3079697 C0.791954545,22.014947 15.516553,13.158553 23.5353409,13.158553 C34.7338561,13.158553 39.358553,21.7072955 40.1147803,25.4933939 C40.8700152,29.2755227 45.1086591,32.3004318 46.4702652,26.0967879 C47.8328636,19.8931439 61.0082879,0.976545455 77.198697,0.976545455 C92.0275,0.976545455 97.1632955,16.2678182 96.7186894,29.2755227 C95.505947,64.6832348 49.8901591,92.9435076 43.8859924,110.788288 C38.539803,99.9797955 0.0992424242,84.357053 0.476363636,50.3079697 Z" id="path-1"></path>
        <path d="M13.3778788,58.2473636 C13.6934697,29.9543409 28.4180682,21.097947 36.4368561,21.097947 C47.6353712,21.097947 52.2600682,29.6466894 53.0162955,33.4327879 C53.7715303,37.2149167 58.0101742,40.2398258 59.3717803,34.0361818 C60.7343788,27.8325379 73.909803,8.91593939 90.1002121,8.91593939 C104.929015,8.91593939 110.064811,24.2072121 109.620205,37.2149167 C108.407462,72.6226288 62.7916742,100.882902 56.7875076,118.727682 C51.4413182,107.919189 13.0007576,92.296447 13.3778788,58.2473636 M95.3967803,0.140924242 C82.0804318,0.140924242 66.3316515,9.97584848 56.7994167,26.3200833 C54.227053,20.4171439 45.0630076,13.9852424 34.1691667,13.9852424 C25.3911742,13.9852424 0.751265152,24.9564924 0.751265152,60.3661894 C0.751265152,106.065341 46.9863258,115.451689 56.3329773,129.654273 C56.9750758,130.631811 59.0442803,131.370174 59.8332576,129.035 C67.2913258,107.025015 125.121871,82.1568485 125.121871,37.3657652 C125.121871,12.2465152 108.713129,0.140924242 95.3967803,0.140924242" id="path-3"></path>
        <filter x="-50%" y="-50%" width="200%" height="200%" filterUnits="objectBoundingBox" id="filter-4">
            <feOffset dx="0" dy="0" in="SourceAlpha" result="shadowOffsetOuter1"></feOffset>
            <feGaussianBlur stdDeviation="5" in="shadowOffsetOuter1" result="shadowBlurOuter1"></feGaussianBlur>
            <feColorMatrix values="0 0 0 0 0   0 0 0 0 0   0 0 0 0 0  0 0 0 0.266191123 0" type="matrix" in="shadowBlurOuter1"></feColorMatrix>
        </filter>
    </defs>
    <g id="Page-1" stroke="none" stroke-width="1" fill="none" fill-rule="evenodd">
        <g id="Monaco" transform="translate(9.835938, 9.839844)">
            <g id="Group-43" transform="translate(12.901515, 7.939394)">
                <mask id="mask-2" fill="white">
                    <use xlink:href="#path-1"></use>
                </mask>
                <g id="Clip-41"></g>
                <path d="M1.62856818,60.7383485 C0.885242424,57.614197 0.473386364,54.3074394 0.473386364,50.8051742 C0.473386364,50.6404318 0.474378788,50.474697 0.476363636,50.3079697 C0.791954545,22.014947 15.516553,13.158553 23.5353409,13.158553 C34.7338561,13.158553 39.358553,21.7072955 40.1147803,25.4933939 C40.5564091,27.7045152 42.188947,29.6576061 43.7410985,29.6576061 C44.8436818,29.6576061 45.9045833,28.6731212 46.4702652,26.0967879 C47.8328636,19.8931439 61.0082879,0.976545455 77.198697,0.976545455 C91.4489167,0.976545455 96.7474697,15.0967576 96.7454848,27.7422273 C96.7444924,28.2553106 96.736553,28.7674015 96.7186894,29.2755227 C96.4547045,36.9906288 94.083803,44.3643409 90.4723712,51.3668864 L1.62856818,60.7383485" id="Fill-40" fill="#DB3C36" mask="url(#mask-2)"></path>
                <path d="M43.8859924,110.788288 C39.1183864,101.149864 8.03565909,87.6846515 1.62856818,60.7383485 L90.4723712,51.3668864 C77.5093258,76.5020152 48.5821439,96.8318258 43.8859924,110.788288" id="Fill-42" fill="#FFFFFF" mask="url(#mask-2)"></path>
            </g>
            <g id="Fill-39">
                <use fill="black" fill-opacity="1" filter="url(#filter-4)" xlink:href="#path-3"></use>
                <use fill="#FFFFFF" fill-rule="evenodd" xlink:href="#path-3"></use>
            </g>
        </g>
    </g>
</svg>