<?xml version="1.0" encoding="UTF-8"?>
<svg width="146px" height="151px" viewBox="0 0 146 151" version="1.1" xmlns="http://www.w3.org/2000/svg" xmlns:xlink="http://www.w3.org/1999/xlink">
    <!-- Generator: Sketch 42 (36781) - http://www.bohemiancoding.com/sketch -->
    <title>Macedonia</title>
    <desc>Created with Sketch.</desc>
    <defs>
        <path d="M44.3688343,110.912 C50.9808422,92.9091347 96.2444717,64.5984613 97.457,29.197 C97.905,16.09 92.73,0.682 77.788,0.682 C61.474,0.682 48.198,19.743 46.825,25.994 C45.453,32.245 41.182,29.197 40.421,25.385 C39.659,21.571 34.999,12.957 23.715,12.957 C15.635,12.957 0.798,21.881 0.48,50.39 C0.104856785,84.2604962 37.8502699,100.03557 43.9982552,110.912 L44.3688343,110.912 L44.3688343,110.912 Z" id="path-1"></path>
        <path d="M13.48,59.39 C13.798,30.88 28.635,21.957 36.715,21.957 C47.999,21.957 52.659,30.571 53.421,34.385 C54.182,38.197 58.453,41.245 59.825,34.994 C61.198,28.743 74.474,9.682 90.788,9.682 C105.73,9.682 110.905,25.09 110.457,38.197 C109.235,73.875 63.271,102.351 57.221,120.332 C51.834,109.441 13.1,93.699 13.48,59.39 Z M96.125,0.84 C82.707,0.84 66.838,10.75 57.233,27.219 C54.641,21.271 45.407,14.79 34.43,14.79 C25.585,14.79 0.757,25.845 0.757,61.525 C0.757,107.573 47.345,117.031 56.763,131.342 C57.41,132.327 59.495,133.07 60.29,130.718 C67.805,108.539 126.077,83.482 126.077,38.349 C126.077,13.038 109.543,0.84 96.125,0.84 L96.125,0.84 Z" id="path-3"></path>
        <filter x="-50%" y="-50%" width="200%" height="200%" filterUnits="objectBoundingBox" id="filter-4">
            <feOffset dx="0" dy="0" in="SourceAlpha" result="shadowOffsetOuter1"></feOffset>
            <feGaussianBlur stdDeviation="5" in="shadowOffsetOuter1" result="shadowBlurOuter1"></feGaussianBlur>
            <feColorMatrix values="0 0 0 0 0   0 0 0 0 0   0 0 0 0 0  0 0 0 0.266191123 0" type="matrix" in="shadowBlurOuter1"></feColorMatrix>
        </filter>
    </defs>
    <g id="Page-1" stroke="none" stroke-width="1" fill="none" fill-rule="evenodd">
        <g id="Macedonia" transform="translate(9.718750, 9.062500)">
            <g id="Group-12" transform="translate(13.000000, 9.000000)">
                <mask id="mask-2" fill="white">
                    <use xlink:href="#path-1"></use>
                </mask>
                <g id="Clip-2"></g>
                <path d="M36.256,103.014 C29.702,97.627 20.567,91.023 13.169,82.392 L29.559,68.915 C28.965,68.147 28.439,67.323 27.98,66.452 L9.48,77.687 C6.674,73.742 4.31,69.412 2.709,64.635 L26.018,59.837 C25.952,59.201 25.921,58.555 25.921,57.896 C25.921,57.236 25.952,56.583 26.018,55.933 L0.781,56.063 C0.563,54.231 0.458,52.34 0.48,50.39 C0.53,45.949 0.931,41.983 1.605,38.453 L27.98,48.905 C28.439,47.936 28.965,47.003 29.559,46.111 L3.853,30.394 C8.775,17.484 17.959,12.957 23.715,12.957 C31.248,12.957 35.829,16.796 38.269,20.483 L41.633,37.001 C42.869,36.623 44.154,36.357 45.463,36.219 C45.553,36.209 45.643,36.201 45.733,36.192 C46.337,36.137 46.932,36.11 47.521,36.11 L47.526,36.11 L47.53,36.11 C48.107,36.11 48.678,36.136 49.241,36.187 C49.244,36.187 49.247,36.188 49.25,36.188 C49.267,36.189 49.283,36.191 49.3,36.193 L53.534,14.486 C59.218,7.612 67.951,0.682 77.788,0.682 C87.246,0.682 92.79,6.855 95.473,14.71 L61.37,42.755 C61.961,43.523 62.486,44.345 62.949,45.215 L97.362,24.317 C97.483,25.956 97.512,27.594 97.457,29.197 C97.26,34.957 95.896,40.531 93.723,45.901 L64.915,51.831 C64.977,52.466 65.011,53.113 65.011,53.773 C65.011,54.432 64.977,55.086 64.915,55.734 L88.856,55.612 C86.055,60.33 82.754,64.867 79.229,69.217 L62.949,62.765 C62.486,63.732 61.961,64.666 61.37,65.558 L75.199,74.013 C67.799,82.537 59.913,90.267 53.866,97.111 L49.3,74.667 C48.056,75.045 46.778,75.311 45.463,75.449 C44.771,75.522 44.085,75.558 43.41,75.558 L43.405,75.558 L43.401,75.558 C42.863,75.558 42.33,75.535 41.807,75.491 C41.749,75.486 41.691,75.481 41.633,75.475 L36.256,103.014 M43.809,71.614 L43.81,71.614 C44.336,71.614 44.87,71.587 45.41,71.532 L45.415,71.532 C45.431,71.53 45.447,71.528 45.463,71.527 C54.098,70.615 61.1,62.852 61.1,54.186 C61.1,46.081 54.977,40.056 47.122,40.053 L47.116,40.053 L47.115,40.053 C46.598,40.053 46.075,40.08 45.544,40.133 C45.536,40.134 45.528,40.134 45.52,40.135 C45.519,40.135 45.517,40.136 45.515,40.136 L45.514,40.136 C45.497,40.138 45.48,40.139 45.463,40.141 C36.828,41.052 29.826,48.816 29.826,57.483 C29.826,65.588 35.948,71.612 43.803,71.614 L43.809,71.614" id="Fill-1" fill="#DA3237" mask="url(#mask-2)"></path>
                <path d="M43.809,71.614 L43.803,71.614 C35.949,71.611 29.826,65.588 29.826,57.483 C29.826,48.816 36.828,41.052 45.463,40.141 C45.48,40.139 45.497,40.138 45.514,40.136 L45.515,40.136 C45.517,40.136 45.519,40.135 45.52,40.135 C45.528,40.134 45.536,40.134 45.544,40.133 C46.075,40.08 46.598,40.053 47.115,40.053 L47.116,40.053 L47.122,40.053 C54.976,40.057 61.1,46.082 61.1,54.186 C61.1,62.852 54.098,70.615 45.463,71.527 C45.447,71.528 45.431,71.53 45.415,71.532 L45.41,71.532 C44.87,71.587 44.336,71.614 43.81,71.614 L43.809,71.614" id="Fill-3" fill="#F8D939" mask="url(#mask-2)"></path>
                <path d="M27.98,48.905 L1.605,38.453 C2.176,35.463 2.941,32.784 3.853,30.394 L29.559,46.111 C28.965,47.003 28.439,47.936 27.98,48.905" id="Fill-4" fill="#F8D939" mask="url(#mask-2)"></path>
                <path d="M2.709,64.635 C1.801,61.925 1.139,59.072 0.781,56.063 L26.018,55.933 C25.952,56.583 25.921,57.236 25.921,57.896 C25.921,58.555 25.952,59.201 26.018,59.837 L2.709,64.635" id="Fill-5" fill="#F8D939" mask="url(#mask-2)"></path>
                <path d="M41.633,37.001 L38.269,20.483 C39.484,22.319 40.168,24.117 40.421,25.385 C40.866,27.614 42.511,29.582 44.075,29.582 C45.186,29.582 46.255,28.59 46.825,25.994 C47.37,23.512 49.791,19.011 53.534,14.486 L49.3,36.193 C49.283,36.191 49.267,36.189 49.25,36.188 C49.247,36.188 49.244,36.187 49.241,36.187 C48.678,36.136 48.108,36.11 47.53,36.11 L47.526,36.11 L47.521,36.11 C46.932,36.11 46.337,36.137 45.733,36.192 C45.643,36.201 45.553,36.209 45.463,36.219 C44.154,36.357 42.869,36.623 41.633,37.001" id="Fill-6" fill="#F8D939" mask="url(#mask-2)"></path>
                <path d="M62.949,45.215 C62.486,44.345 61.961,43.523 61.37,42.755 L95.473,14.71 C96.51,17.747 97.119,21.036 97.362,24.317 L62.949,45.215" id="Fill-7" fill="#F8D939" mask="url(#mask-2)"></path>
                <path d="M43.998,110.912 C42.665,108.554 39.848,105.966 36.256,103.014 L41.633,75.475 C41.691,75.481 41.749,75.486 41.807,75.491 C42.331,75.535 42.862,75.558 43.401,75.558 L43.405,75.558 L43.41,75.558 C44.085,75.558 44.771,75.522 45.463,75.449 C46.778,75.311 48.056,75.045 49.3,74.667 L53.866,97.111 C49.37,102.2 45.891,106.798 44.384,110.871 L43.998,110.912" id="Fill-8" fill="#F8D939" mask="url(#mask-2)"></path>
                <path d="M64.915,55.734 L64.915,55.734 C64.977,55.086 65.011,54.432 65.011,53.773 C65.011,53.113 64.977,52.466 64.915,51.831 L93.723,45.901 C92.381,49.217 90.732,52.453 88.856,55.612 L64.915,55.734" id="Fill-9" fill="#F8D939" mask="url(#mask-2)"></path>
                <path d="M13.169,82.392 C11.879,80.887 10.642,79.32 9.48,77.687 L27.98,66.452 C28.439,67.323 28.965,68.147 29.559,68.915 L13.169,82.392" id="Fill-10" fill="#F8D939" mask="url(#mask-2)"></path>
                <path d="M75.199,74.013 L61.37,65.558 C61.961,64.666 62.486,63.732 62.949,62.765 L79.229,69.217 C77.913,70.842 76.564,72.442 75.199,74.013" id="Fill-11" fill="#F8D939" mask="url(#mask-2)"></path>
            </g>
            <g id="Fill-36">
                <use fill="black" fill-opacity="1" filter="url(#filter-4)" xlink:href="#path-3"></use>
                <use fill="#FFFFFF" fill-rule="evenodd" xlink:href="#path-3"></use>
            </g>
        </g>
    </g>
</svg>