<?xml version="1.0" encoding="UTF-8"?>
<svg width="145px" height="150px" viewBox="0 0 145 150" version="1.1" xmlns="http://www.w3.org/2000/svg" xmlns:xlink="http://www.w3.org/1999/xlink">
    <!-- Generator: Sketch 42 (36781) - http://www.bohemiancoding.com/sketch -->
    <title>Slovakia</title>
    <desc>Created with Sketch.</desc>
    <defs>
        <path d="M13.3778788,58.2473636 C13.6934697,29.9533485 28.4180682,21.097947 36.4368561,21.097947 C47.6353712,21.097947 52.2600682,29.6466894 53.0162955,33.4317955 C53.7715303,37.2149167 58.0101742,40.2398258 59.3717803,34.0361818 C60.7343788,27.8325379 73.909803,8.91593939 90.1002121,8.91593939 C104.929015,8.91593939 110.064811,24.2072121 109.620205,37.2149167 C108.407462,72.6226288 62.7916742,100.882902 56.7875076,118.727682 C51.4413182,107.919189 13.0007576,92.296447 13.3778788,58.2473636 Z M95.3967803,0.140924242 C82.0804318,0.140924242 66.3316515,9.97584848 56.7994167,26.3200833 C54.227053,20.4171439 45.0630076,13.9852424 34.1691667,13.9852424 C25.3911742,13.9852424 0.751265152,24.9564924 0.751265152,60.3661894 C0.751265152,106.065341 46.9863258,115.451689 56.3329773,129.654273 C56.9750758,130.631811 59.0442803,131.369182 59.8332576,129.035 C67.2913258,107.025015 125.121871,82.1568485 125.121871,37.3657652 C125.121871,12.2465152 108.713129,0.140924242 95.3967803,0.140924242 L95.3967803,0.140924242 Z" id="path-1"></path>
        <filter x="-50%" y="-50%" width="200%" height="200%" filterUnits="objectBoundingBox" id="filter-2">
            <feOffset dx="0" dy="0" in="SourceAlpha" result="shadowOffsetOuter1"></feOffset>
            <feGaussianBlur stdDeviation="5" in="shadowOffsetOuter1" result="shadowBlurOuter1"></feGaussianBlur>
            <feColorMatrix values="0 0 0 0 0   0 0 0 0 0   0 0 0 0 0  0 0 0 0.266191123 0" type="matrix" in="shadowBlurOuter1"></feColorMatrix>
        </filter>
    </defs>
    <g id="Page-1" stroke="none" stroke-width="1" fill="none" fill-rule="evenodd">
        <g id="Slovakia" transform="translate(9.777344, 9.839844)">
            <path d="M56.7875076,118.727682 C60.1994621,108.587091 76.3997955,95.0821818 89.9781439,78.8153561 L22.3593182,85.4030682 C33.968697,101.675848 53.1284394,111.330152 56.7875076,118.727682" id="Fill-40" fill="#DA3331"></path>
            <path d="M90.1002121,8.91593939 C73.909803,8.91593939 60.7343788,27.8325379 59.3717803,34.0361818 C58.0101742,40.2398258 53.7715303,37.2149167 53.0162955,33.4317955 C52.2600682,29.6466894 47.6353712,21.097947 36.4368561,21.097947 C29.3946136,21.097947 17.1838258,27.9327727 14.0993712,48.7607803 L109.485235,39.3605379 C109.546765,38.6479773 109.596386,37.9334318 109.620205,37.2149167 C110.064811,24.2072121 104.929015,8.91593939 90.1002121,8.91593939" id="Fill-41" fill="#FFFFFF"></path>
            <path d="M14.1053258,48.7607803 C13.6756061,51.6487348 13.4165833,54.7986894 13.3778788,58.2473636 C13.2587879,68.9923409 17.0071742,77.9003409 22.3593182,85.4030682 L89.9781439,78.8153561 C99.8090985,67.0372652 108.247682,53.8092424 109.475311,39.3605379 L14.1053258,48.7607803" id="Fill-42" fill="#1C458A"></path>
            <path d="M63.9686894,39.6969697 L45.2475985,41.6699091 L26.5294848,43.6448333 C26.5294848,43.6448333 23.9809394,63.2928485 27.6062652,74.3196742 C33.2908712,88.3773636 45.2475985,90.6559697 45.2475985,90.6559697 C45.2475985,90.6559697 57.2053182,85.8536288 62.8899242,70.5970909 C66.5162424,58.8051061 63.9686894,39.6969697 63.9686894,39.6969697" id="Fill-43" fill="#DA3331"></path>
            <path d="M59.5871364,77.414053 C59.5107197,75.9532045 59.0343561,73.6775758 56.9115606,72.8012652 C53.0887424,71.6321894 51.1287045,74.5925909 51.1287045,74.5925909 C51.1287045,74.5925909 49.9526818,69.7981894 45.2475985,70.5881591 C40.5445,70.7916061 39.3684773,75.8331212 39.3684773,75.8331212 C39.3684773,75.8331212 37.4064545,73.2845758 33.5866136,75.2604924 C31.4608409,76.5843864 30.9874545,78.9642197 30.909053,80.4389621 C36.9658182,89.073053 45.2475985,90.6559697 45.2475985,90.6559697 C45.2475985,90.6559697 53.5313636,87.3253939 59.5871364,77.414053" id="Fill-44" fill="#1C458A"></path>
            <path d="M43.1912955,64.4113106 L43.1912955,71.041697 C43.78675,70.7886288 44.4685455,70.6219015 45.2475985,70.5881591 C46.0276439,70.4581515 46.7094394,70.4799848 47.3058864,70.6080076 L47.3058864,63.9776212 C47.3058864,63.9776212 52.3037348,63.0586364 57.1080606,63.7324924 C56.1275455,61.6206136 56.6168106,59.9483788 57.1080606,57.8305455 C53.9223788,59.1494773 47.3058864,59.7479091 47.3058864,59.7479091 L47.3058864,54.928697 C47.3058864,54.928697 50.9818258,54.5416515 55.0487803,54.9981667 C53.8727576,52.4664924 55.0487803,48.9989621 55.0487803,48.9989621 C55.0487803,48.9989621 51.7172121,50.2841515 47.3058864,50.7962424 C47.1590076,48.5513788 48.1385303,43.2835909 48.1385303,43.2835909 C48.1385303,43.2835909 46.0822273,44.0437879 45.2475985,44.1301288 C44.4149545,44.219447 42.3566667,43.8929394 42.3566667,43.8929394 C42.3566667,43.8929394 43.3371818,48.954303 43.1912955,51.2299318 C38.7799697,51.6477424 35.4474091,51.0661818 35.4474091,51.0661818 C35.4474091,51.0661818 36.6244242,54.2865985 35.4474091,57.0653864 C39.5153561,55.7524091 43.1912955,55.3623864 43.1912955,55.3623864 L43.1912955,60.1815985 C43.1912955,60.1815985 36.574803,60.9805 33.3891212,60.332447 C33.8793788,62.3470682 34.3686439,63.9160909 33.3891212,66.2343939 C38.1904697,64.5472727 43.1912955,64.4113106 43.1912955,64.4113106" id="Fill-45" fill="#FFFFFF"></path>
            <path d="M62.8899242,70.5970909 C57.2053182,85.8536288 45.2475985,90.6559697 45.2475985,90.6559697 C45.2475985,90.6559697 33.2908712,88.3773636 27.6062652,74.3196742 C23.9809394,63.2928485 26.5294848,43.6448333 26.5294848,43.6448333 L45.2475985,41.6699091 L63.9686894,39.6969697 C63.9686894,39.6969697 66.5162424,58.8051061 62.8899242,70.5970909 Z M64.9402727,39.4657348 L64.8271364,38.6231667 L25.6700455,42.7546288 L25.5588939,43.6200227 C25.4527045,44.4298409 23.02325,63.6124091 26.6743788,74.7146591 L26.6932348,74.7732121 C29.7151667,82.2441818 34.4996439,86.4232803 37.9810682,88.6135606 C41.7751061,90.9983561 44.841697,91.60175 44.9707121,91.627553 L45.2475985,91.6801515 L45.5264697,91.569 C45.6535,91.5164015 48.7230682,90.265947 52.5151212,87.0802652 C55.9965455,84.1565833 60.7810227,78.9701742 63.8029545,70.8580985 L63.8247879,70.7975606 C67.4739318,58.924197 65.0434848,40.2537197 64.9402727,39.4657348 L64.9402727,39.4657348 Z" id="Fill-46" fill="#FFFFFF"></path>
            <g id="Fill-39">
                <use fill="black" fill-opacity="1" filter="url(#filter-2)" xlink:href="#path-1"></use>
                <use fill="#FFFFFF" fill-rule="evenodd" xlink:href="#path-1"></use>
            </g>
        </g>
    </g>
</svg>