<?xml version="1.0" encoding="UTF-8"?>
<svg width="146px" height="151px" viewBox="0 0 146 151" version="1.1" xmlns="http://www.w3.org/2000/svg" xmlns:xlink="http://www.w3.org/1999/xlink">
    <!-- Generator: Sketch 42 (36781) - http://www.bohemiancoding.com/sketch -->
    <title>Turkey</title>
    <desc>Created with Sketch.</desc>
    <defs>
        <path d="M0.477222808,51.1930397 C0.477310636,85.1545512 38.8602928,100.796157 44.221,111.634 C50.271,93.653 96.235,65.177 97.457,29.499 C97.905,16.392 92.73,0.984 77.788,0.984 C61.474,0.984 48.198,20.045 46.825,26.296 C45.453,32.547 41.182,29.499 40.421,25.688 C39.659,21.873 34.999,13.259 23.715,13.259 C15.635,13.259 0.798,22.183 0.48,50.692 C0.478145818,50.8594083 0.477222893,51.0263745 0.477222808,51.1929002 L0.477222808,51.1930273 L0.477222808,51.1930397 Z" id="path-1"></path>
        <path d="M13.48,58.692 C13.798,30.182 28.635,21.259 36.715,21.259 C47.999,21.259 52.659,29.873 53.421,33.687 C54.182,37.499 58.453,40.547 59.825,34.296 C61.198,28.045 74.474,8.984 90.788,8.984 C105.73,8.984 110.905,24.392 110.457,37.499 C109.235,73.177 63.271,101.653 57.221,119.634 C51.834,108.743 13.1,93.001 13.48,58.692 Z M96.125,0.142 C82.707,0.142 66.838,10.052 57.233,26.521 C54.641,20.573 45.407,14.092 34.43,14.092 C25.585,14.092 0.757,25.147 0.757,60.827 C0.757,106.875 47.345,116.333 56.763,130.644 C57.41,131.629 59.495,132.372 60.29,130.02 C67.805,107.842 126.077,82.784 126.077,37.651 C126.077,12.34 109.543,0.142 96.125,0.142 L96.125,0.142 Z" id="path-3"></path>
        <filter x="-50%" y="-50%" width="200%" height="200%" filterUnits="objectBoundingBox" id="filter-4">
            <feOffset dx="0" dy="0" in="SourceAlpha" result="shadowOffsetOuter1"></feOffset>
            <feGaussianBlur stdDeviation="5" in="shadowOffsetOuter1" result="shadowBlurOuter1"></feGaussianBlur>
            <feColorMatrix values="0 0 0 0 0   0 0 0 0 0   0 0 0 0 0  0 0 0 0.266191123 0" type="matrix" in="shadowBlurOuter1"></feColorMatrix>
        </filter>
    </defs>
    <g id="Page-1" stroke="none" stroke-width="1" fill="none" fill-rule="evenodd">
        <g id="Turkey" transform="translate(9.855469, 10.062500)">
            <g id="Group-4" transform="translate(13.000000, 8.000000)">
                <mask id="mask-2" fill="white">
                    <use xlink:href="#path-1"></use>
                </mask>
                <g id="Clip-2"></g>
                <path d="M44.221,111.634 C38.834,100.743 0.1,85.001 0.48,50.692 C0.798,22.183 15.635,13.259 23.715,13.259 C34.999,13.259 39.659,21.873 40.421,25.688 C40.866,27.916 42.511,29.884 44.075,29.884 C45.186,29.884 46.255,28.892 46.825,26.296 C48.198,20.045 61.474,0.984 77.788,0.984 C92.73,0.984 97.905,16.392 97.457,29.499 C96.235,65.177 50.271,93.653 44.221,111.634 M17.401,61.223 L17.401,61.223 C17.401,70.627 24.504,77.617 33.62,77.616 C34.249,77.616 34.891,77.582 35.538,77.514 C41.994,76.834 47.659,72.854 50.875,67.419 C48.218,70.667 44.364,72.943 40.075,73.396 C39.556,73.451 39.045,73.477 38.541,73.477 C31.248,73.477 25.564,67.886 25.564,60.363 C25.564,52.321 32.061,45.116 40.075,44.27 C40.594,44.215 41.107,44.189 41.612,44.189 C45.279,44.189 48.539,45.604 50.875,47.968 C47.982,43.688 43.106,41.005 37.456,41.005 C36.826,41.005 36.185,41.039 35.538,41.107 C25.521,42.164 17.401,51.169 17.401,61.223 M49.749,57.809 L49.749,57.809 L55.883,59.302 L56.015,65.805 L59.938,60.196 L66.153,61.427 L62.443,56.47 L66.153,50.728 L59.938,53.271 L56.015,48.491 L55.883,55.023 L49.749,57.809" id="Fill-1" fill="#C92932" mask="url(#mask-2)"></path>
                <path d="M33.62,77.616 C24.504,77.617 17.401,70.627 17.401,61.223 C17.401,51.169 25.521,42.164 35.538,41.107 C36.185,41.039 36.826,41.005 37.456,41.005 C43.106,41.005 47.982,43.688 50.875,47.968 C48.539,45.604 45.279,44.189 41.612,44.189 C41.107,44.189 40.594,44.215 40.075,44.27 C32.061,45.116 25.564,52.321 25.564,60.363 C25.564,67.886 31.248,73.477 38.541,73.477 C39.045,73.477 39.556,73.451 40.075,73.396 C44.364,72.943 48.218,70.667 50.875,67.419 C47.659,72.854 41.994,76.834 35.538,77.514 C34.891,77.582 34.249,77.616 33.62,77.616 M56.015,65.805 L55.883,59.302 L49.749,57.809 L55.883,55.023 L56.015,48.491 L59.938,53.271 L66.153,50.728 L62.443,56.47 L66.153,61.427 L59.938,60.196 L56.015,65.805" id="Fill-3" fill="#FFFFFF" mask="url(#mask-2)"></path>
            </g>
            <g id="Fill-43">
                <use fill="black" fill-opacity="1" filter="url(#filter-4)" xlink:href="#path-3"></use>
                <use fill="#FFFFFF" fill-rule="evenodd" xlink:href="#path-3"></use>
            </g>
        </g>
    </g>
</svg>